<?xml version="1.0" encoding="utf-8"?>
<!-- Generator: Adobe Illustrator 22.0.1, SVG Export Plug-In . SVG Version: 6.00 Build 0)  -->
<svg version="1.1" id="Layer_1" xmlns="http://www.w3.org/2000/svg" xmlns:xlink="http://www.w3.org/1999/xlink" x="0px" y="0px"
	 width="1200px" height="1200px" viewBox="0 0 1200 1200" style="enable-background:new 0 0 1200 1200;" xml:space="preserve">
<style type="text/css">
	.st0{fill:#00898B;}
</style>
<path class="st0" d="M379,784.4c-4.7-4.9-8.7-9.2-12.7-13.4c4.3-2.6,8.3-5,12.7-7.6C379,770.3,379,776.8,379,784.4z M386.7,777
	c0.3,0.1,0.6,0.2,0.9,0.3c3.2-4.6,6.5-9.2,10-14.1c-4-2.7-7.5-5.1-10.9-7.4C386.7,762.9,386.7,769.9,386.7,777z M450.1,652.8
	c-0.5-4.1-2.9-7.2-6.7-7.4c-4.2-0.3-8.4-0.4-12.5,0.3c-13.9,2.4-24.3,10.8-33.3,21.1c-11.3,13-18.7,28.5-25.8,44.1
	c-4,8.8-6.5,17.8-6.3,27.5c0.1,7.8,2,14.9,5.9,21.9c10.4-4.9,17.7-12.9,24.3-22.1c-10.9-4.3-15.5-11.9-13.8-22.7
	c3.3-21,14.2-37.3,30.7-50c7.8-6,16.5-9.4,26.8-7.8c5.2,0.9,6.4,2.8,4.2,7.6c-1.1,2.5-2.6,4.5-5.5,5.2c-1.4,0.4-2.8,1.3-4,2.2
	c-12.4,8.7-20.5,20.5-24.5,35c-1.7,6.1-1.9,12.4,2.1,18.2c0.6-0.5,1.1-0.9,1.5-1.4c1.3-1.5,2.8-2.9,3.8-4.6
	c10.1-17.3,20.4-34.6,30.3-52C449.9,663.6,450.7,658.3,450.1,652.8z M281.8,471.5c-2.3,9.7-2.5,19.7-1.4,29.9
	c21-7.2,39.5-0.1,57.7,10c0.6-6.2-2-10.8-5.6-14.5c-6.9-7.3-14.2-14.2-21-21.5c-5.5-5.9-10.3-12.5-8.6-21.3c1.1-5.6,2.8-11.1,5-16.3
	c2.7-6.6,6.3-12.9,9.2-19.5c5.8-13.2,9.6-26.9,9.4-41.6c-0.1-9.8-10.5-19.2-18.3-20.3c-10.5-1.5-18.9,2.9-26.8,9.2
	c1.4-0.3,2.8-0.5,4.2-0.7c7.1-0.9,11.9,2.1,13.8,9.2c1,3.7,1.6,7.6,1.6,11.4c0.2,10.8-3.1,20.9-5.6,31.2
	C291.1,434.9,286.2,453.1,281.8,471.5z M412.6,733.6c-6.5,6.7-12.4,12.8-18.3,18.7c2.3,0.9,5.2,2.1,8.5,3.5
	C406,748.5,409.1,741.4,412.6,733.6z M355.5,799.1c6.3-2.7,11.7-5.1,17.5-7.6c-5.5-6.9-10.3-13-15.9-19.9
	C356.6,780.9,356.1,789.4,355.5,799.1z M501.2,910.3c-1.4-1.1-2.2-1.7-3-2.1c-4.6-2.7-9-5.4-11.8-10.2c-0.3-0.7-2-0.8-3.1-0.7
	c-3.7,0.3-7.4,1.1-11.1,1.3c-3.8,0.2-7.6,0.1-12.2,0.1C471.9,911.2,485.7,912.3,501.2,910.3z M316,766.4c3.4,6.7,6.6,13.4,10.1,20.1
	c2.9,5.6,8.6,7.4,13.8,9.5c-7.6-10.1-15.2-20.1-22.8-30.2C316.6,766.1,316.3,766.3,316,766.4z M559.5,958.2c-3-2.9-5.4-2.7-7.8,0.9
	c-2.5,3.9-2.8,8-1.2,12.5c2.9-8.8,2.9-8.8,7.8-5.6c1.3-1.5,2.7-2.9,4.2-4.5C561.2,960.1,560.4,959,559.5,958.2z M349,799.3
	c0-9.2,0-18.3,0-27.4c-7-0.9-14.2-1.8-21.9-2.8c7.2,10.4,14.1,20.3,21,30.3C348.4,799.4,348.8,799.4,349,799.3z M277.6,515.1
	c0.1,1.3,3.2,2.9,5.3,3.5c10.3,3,20.7,5.7,31,8.4c1.1,0.3,2.5-0.3,3.8-0.5c-0.3-1.4-0.3-3-1.1-4.2c-0.7-1.1-2.1-1.7-3.2-2.5
	c0.3-0.3,0.5-0.7,0.8-1c4.2,0.5,8.4,1,12.7,1.5c0.1-0.3,0.1-0.5,0.2-0.7c-2-1.3-3.8-3-6-3.9c-12.3-5.1-25-7.2-38.2-5
	C280.3,511.1,277.3,512.2,277.6,515.1z M516.4,904.4c8.4-7.1,11.6-16.5,12.5-27.1c-9.4,1.7-13.3,0.5-19.7-6.8
	c-7.9-9.1-13.6-19.7-16.7-31.3c-5.9-22.3-13.1-44-24.3-64.2c-6.5-11.7-14.2-22.3-25-30.5c-0.6-0.5-1.3-0.8-2.2-1.4
	c4.5,7,8.9,13.5,12.8,20.2c9.6,16.4,16.1,34,18.8,53c1.9,13.9,3.1,27.9,5.5,41.7c3.6,20.7,13.8,37,32.8,47.1
	C513.1,906.4,514.5,906,516.4,904.4z M298,911.7c-0.1,0.9,0.4,1.7,0.7,2.7c0.8-0.5,1.9-0.9,2.4-1.7c2.2-3.7,4-7.6,6.3-11.3
	c10.6-17.3,21.3-34.5,31.9-51.8c0.5-0.9,0.6-2.5,0.1-3.5c-2.2-5.2-4.7-10.2-6.9-15.4c-2-5-3.4-10.2-5.3-15.7
	c-8,18.3-15.9,36.1-21.4,54.9C301.8,883.5,298.8,897.4,298,911.7z M311.5,560c3.6-0.1,7.2-0.9,10.9-1.4c0-0.5,0.1-0.9,0.1-1.3
	c-4.6-1.2-9.2-2.4-14.6-3.8c1.7-0.3,2.8-0.4,3.8-0.8c2.4-0.9,4.7-1.7,6.9-2.9c0.8-0.4,1.1-1.7,1.6-2.6c-0.9-0.4-1.8-1-2.8-1.1
	c-4-0.5-8.1-0.7-12.1-1.2c-9.4-1.2-18.8-2.5-28.3-3.6c-1.1-0.1-2.3,0.7-3.5,1.1c0.5,1.3,0.7,2.9,1.6,3.7
	C285.5,555.8,297.7,560.3,311.5,560z M553.5,338.7c-2.4-1.6-4.8-3.1-7.3-4.5c-6.7-3.6-13.7-6.3-21.4-6.8c-4.4-0.3-5.7,0.3-7.3,4.4
	c-1.1,2.7-1.4,5.7-1.8,7.2c0.4,10.7,3.2,18.9,9,26c1.9,2.3,4.7,3.9,7.2,5.6c0.7,0.5,1.8,0.3,2.7,0.5c0.1-1.1,0.5-2.1,0.3-3.1
	c-0.6-3.5-1.5-6.9-2.1-10.4c-1.3-7.4,2.6-12.1,10.1-12c2.5,0,5,0.4,7.4,0.9c2.2,0.5,4.3,1,5.4-1.5
	C556.9,342.3,555.8,340.2,553.5,338.7z M657.1,546c-3.7-5.6-7.1-11-10.7-16.6c-6.3,9.8-14.6,17.7-19,28.2
	C636.2,551.6,646,548.1,657.1,546z M552.7,358.3c0.1-3.7-3.5-6.6-7.9-6.7c-3.9-0.1-6.9,2.5-6.9,5.9c-0.1,3.5,3.5,6.7,7.5,6.8
	C549.4,364.4,552.7,361.8,552.7,358.3z M518.7,311.7c-4.4-0.1-7.3,2.3-7.3,5.8c0,3.5,3.1,6.2,7.1,6.3c4.6,0.1,8-2.7,7.9-6.6
	C526.4,314,523.2,311.8,518.7,311.7z M456.4,428.2c1-0.3,1.8-0.6,2.8-0.8c6.2-1.5,12.3-3.4,18.5-4.3c8.6-1.2,17.1-0.5,24.5,5
	c7.3,5.4,13.3,12.2,18.3,19.9c13.4,20.7,21.4,43.5,27.2,67.2c2,8.2,3.4,16.6,5.2,25.7c0.3-1.7,0.5-2.6,0.8-3.5
	c2.4-6.7,4-13.9,7.4-20.1c6-11.2,15.8-16.7,28.7-15.4c11.9,1.2,21.7,6.6,29.4,15.9c2.9,3.5,5.1,7.4,4.7,12.7
	c-1.7-0.7-3.1-1.3-4.5-1.8c-16.3-6.4-34.2-0.1-43,14.9c-5.8,9.9-7.2,20.6-5.2,31.7c1.4,8.3,4.7,15.9,9.8,23.3
	c25-32.5,49.8-64.8,74.7-97.3c-8-2.7-15.4-5-22.7-7.6c-34.6-12.2-67.9-27.2-98.5-47.6c-19.5-13-37.4-27.8-51.5-47
	c-2.6-3.5-4.9-7.3-7.4-11.1C463.9,393,454.4,413.3,456.4,428.2z M500.1,343.1c-9.2,0.9-17.1,4.6-23.3,11.6c-1.3,1.5-2.2,4-2.1,5.8
	c0.6,7.8,3.2,15.1,7.4,21.7c4,6.3,11.1,8.2,18,5.2c3.8-1.6,5.7-4.5,5.6-8.5c-0.2-8.3-6-12.3-15.1-10.2c-0.8-5,3.2-9.1,8-8.2
	c6.7,1.3,10.7,6,14.2,11.4c3.8,6.2,2.6,11.3-3.9,14.6c-3.3,1.7-6.8,3.1-10.3,4.3c-2.3,0.8-3.1,1.9-2.6,4.3
	c1.1,5.6,3.2,10.6,6.7,14.9c5.5,6.5,12,11.4,20.7,12.3c5,0.5,10.2-2,12-5.9c1.7-3.9,0.3-9.2-3.3-12.3c-2.9-2.5-6.2-3.2-9.8-2.4
	c-2.1,0.5-4.2,1.3-6.2,1.9c-2.4-6,0.7-11.5,6.9-11.7c3-0.1,6.8,0.1,9.1,1.9c4.9,3.6,9.2,8,13.5,12.4c1.8,1.8,1.7,4.3-0.1,6.3
	c-2.1,2.4-4.3,4.7-6.4,7.1c-2.5,2.9-5.1,5.8-7.4,8.8c-0.5,0.7-0.4,2.8,0.2,3.3c5.4,4.3,10.9,8.6,16.6,12.5c4,2.7,8.6,3.9,13.4,3.6
	c5.9-0.4,11.3-5.6,11.6-11.2c0.3-5.5-3.4-9.9-9.9-10.7c-3.8-0.5-7.8,0.2-11.6,0.4c2.8-8.4,7.5-10.4,14.9-5.5c5,3.3,9.6,7.4,14,11.5
	c2.8,2.5,2.5,6,0.1,8.9c-2.4,3-5,5.9-6.9,9.2c-2.2,3.7-1.3,5.4,2.8,6.9c5.1,1.8,10.3,3.8,15.5,5.6c8.9,3,17.8,5.6,27.3,3.7
	c6.1-1.3,9.4-6.4,8-12.5c-1.1-4.9-4.7-7-9-8.3c-4.9-1.5-9.8-0.7-13.4,3.2c-3.2,3.5-6.7,4-11,3.1c-2.1-0.5-2.6-1.5-2.4-3.5
	c0.6-4.8,4.3-8.6,9.4-8.4c5.8,0.2,11.5,1.1,17.3,1.6c4.4,0.3,8.8,0.5,13.1,0.7c0.5-3.3-0.9-4.1-2.6-4.7
	c-11.7-4.6-23.8-8.5-35.1-13.9c-24.8-11.9-46.9-27.8-65.1-48.7c-6.7-7.7-12.2-16.5-17.9-25C508.3,346,505.5,342.6,500.1,343.1z
	 M317.9,617.7c12.6,10.6,26.7,18.2,42.2,23.1c-1.1-5.8-2.5-11.1-3-16.5c-0.8-10.4,4.9-17,15.1-18.7c8.5-1.4,15.2,3.4,17.8,13
	c2,7.1,1.4,14.2-1,21.2c-0.7,2.1-1.6,4.2-2.6,6.6c16.9,1.3,32.9-0.2,47.9-7.9c-0.8-2.7-1.8-5.2-2.2-7.8c-0.9-5.7,1.9-10.6,6.5-12
	c5.6-1.6,11.6,1.3,13.8,6.7c0.6,1.5,0.9,3.1,1.4,4.8c26.9-10.8,45.3-30.6,60-54.7c-3.4-3.1-4.2-6.4-2.3-9.7c2-3.5,4.5-3.9,10-1.9
	c3.4-5.7,5.3-12.2,4.5-15.5c-0.7,0.9-1.4,1.7-2.1,2.5c-2,2.3-4,3.7-7.4,3.5c-2.8-0.3-6.1,0.9-8.6,2.3c-7.4,4.3-9.7,12.2-6.6,21.8
	c0.9,2.7,0.6,4.7-1,7c-6.9,10.2-15.6,18.8-25.3,26.3c-2.6,2.1-5.5,3.8-8.3,5.6c-9.7-16.5-18.8-22.7-30.4-19.1
	c-17.6,5.6-23.9,18.3-19.8,36.5c-4.3,0.4-8.2,0.7-12.5,1.1c0-6,0.5-11.6-0.1-17.1c-1.6-15.2-11.9-26.4-26.3-29.4
	c-15-3.2-28.9,5.4-32.3,20.5c-1.1,4.8-1,10-1.4,15.4c-4.5-2.4-9.2-5-14.2-7.6c9-16.9,10.9-33.3-0.7-49c-6.5,0-12.5,0-18.6,0
	c7.4,11.6,10.7,23.5,4.2,37.1c-12.7-11.5-22-24.8-29.7-39.5C290.3,587.2,301.7,604.1,317.9,617.7z M585.8,369.6
	c-8.6-4.8-17.8-7.6-27.7-7c-7.4,0.4-8.6,1.9-8.6,9.4c0.2,2,0.2,4,0.6,5.9c2.4,13.6,10.3,23.2,22.1,29.6c1.4,0.8,3.3,0.7,5,1.1
	c-0.3-1.9-0.2-3.9-0.9-5.5c-1.1-2.3-2.8-4.2-4.2-6.3c-1.2-1.9-2.5-3.7-3.5-5.6c-4.6-9.2-2.4-12.6,7.7-12.6c3,0,6.1-0.4,9-1.3
	c1.3-0.4,3-2.3,3.1-3.6C588.5,372.4,587.1,370.3,585.8,369.6z M456.3,890.4c0.5,0.1,1.1,0.1,1.6,0.1c6.8-1.1,13.6-2.1,20.8-3.2
	c-10.3-3.3-20.4-6.5-30.3-9.7C448,881.2,452.8,889.2,456.3,890.4z M273,529.1c-0.3,0.9,0.3,2.6,1.1,3.1c11.1,7,23.1,11.3,36.4,10
	c3.4-0.3,6.8-0.8,9.2-3.7c-4.8-0.8-9.5-1.6-14.2-2.4c0.1-0.3,0.1-0.5,0.1-0.7c3.2-1.1,6.4-2,9.5-3.3c0.8-0.3,1.1-1.6,1.7-2.5
	c-0.9-0.4-1.6-1.1-2.5-1.1c-7.4-0.3-14.9-0.6-22.3-0.9c-5.5-0.2-10.9-0.3-16.5-0.3C274.7,527.5,273.3,528.3,273,529.1z M624,385
	c-4.1-0.7-8.3-0.7-12.5-1c-7.8,0-15.4,0.9-22.1,5.2c-1.1,0.7-2.2,2.7-2,3.9c1.8,13.4,9,23.2,20.4,30.2c1.9,1.2,3.6,0.4,4.3-1.5
	c0.6-1.5,0.7-3.5,0.4-5c-0.5-2.7-1.7-5.2-2.5-7.9c-2.5-7.9-0.1-12.2,7.9-14.2c2.6-0.7,5.4-1.3,7.7-2.6c1.2-0.7,2.3-2.9,2-4.2
	C627.3,386.6,625.4,385.2,624,385z M614.2,406.3c-0.9,3.9,1.1,7.9,5.2,9.6c2,0.8,4.3,1.2,6.4,1.1c5.6-0.3,10-4.4,10-9
	c0-4.6-3.9-8.2-9.8-8.8c-0.4,0-0.9-0.1-1.1-0.1C619.8,398.9,615.2,402,614.2,406.3z M571.3,389.4c0,3.4,2.3,5.6,5.9,5.6
	c4.5,0.1,7.7-3.1,7.7-7.6c0-4.2-1.9-6.6-5.2-6.5C575.1,381,571.3,385,571.3,389.4z M880.1,408.5c-6.7-4.5-14.3-6.8-22.3-7.4
	c-17.5-1.4-33.2,4-48.4,12.9c23.7,29.8,51.3,55.1,79.8,79.4c0.5-0.3,0.7-0.4,0.8-0.6c6.5-13.6,11.1-27.7,10.9-43
	C900.8,432.6,894.9,418.3,880.1,408.5z M770.3,525.3c-0.3,0-0.7,0.1-1.1,0.1c-6.4,12.4-15.9,21.7-27.3,29.8
	c14.7,5.7,26.3,14.8,34.3,28.4c0.3,0.6,1.3,0.9,1.9,1.3c0.3-0.8,1-1.7,0.9-2.5c-0.9-10.4-1.3-21-2.8-31.4
	C774.8,542.5,772.3,534,770.3,525.3z M697.8,465.7c0.9,0.5,1.6,1.3,2.6,1.4c5.5,0.6,11.1,1.1,18.3,1.7c8.2-0.8,17.8-2.1,27.5-2.7
	c4.7-0.3,7.2-2.6,9.3-6.4c4.1-7.8,8.4-15.5,12.5-23.2c0.3-0.5,0.1-1.3,0.1-2c-0.8,0.1-1.6,0-2.3,0.4c-5.1,3.2-10.1,6.6-15.3,9.6
	c-15.8,9-32.6,15.7-50.3,19.7C699.3,464.3,698.6,465.2,697.8,465.7z M733.5,405.6c-2.5,5.6-5,11.1-7.6,17c7,1.5,13.4,2.8,19.9,4.2
	C748.3,420.3,742.5,410.1,733.5,405.6z M672.3,401.4c-3.4-0.1-6.5,2.1-6.6,4.6c-0.1,3.5,3.3,6.6,7.4,6.7c3,0.1,4.9-1.7,5-4.5
	C678.3,405.1,675.3,401.5,672.3,401.4z M701.5,399.5c-0.1-0.3-0.2-0.7-0.3-1c-7.8-1.2-15.7-2.3-23.5-3.5c-0.3,0.3-0.5,0.7-0.9,1.1
	c1.5,5.8,3,11.6,4.7,18.2C688.9,408.8,695.2,404.2,701.5,399.5z M477,876.5c-1.8-7-3.5-13.7-5.3-20.8c-6.9,2.6-14.1,5.3-21.7,8.2
	C458.2,870.9,467.9,873.3,477,876.5z M749.6,259.7c-8.6,2.4-14.3,8-20.4,12.8c5.7,2.8,11.1,5.4,16.9,8.2
	C744.1,273.2,746.8,266.7,749.6,259.7z M682.1,337.4c1.4-5.5,2.6-11.2,4-16.7c1-3.8,2.2-7.5,3.4-11.2c-11.9,9.6-19.8,21.7-24.3,36.1
	c5.3-1.7,10.3-3.7,15.2-5.8C681.2,339.5,681.8,338.3,682.1,337.4z M823.4,299.3c-1.5,10.8-5.7,20.3-12.6,28.3
	c6.6-0.9,13-2.4,19.5-2.4c19.6-0.1,38.5,4.3,56.9,10.9c5.1,1.8,9.8,4.3,14.8,6.3c0.9,0.3,1.9,0.3,2.9,0.3c-0.3-1-0.5-2.1-0.9-3.1
	c-0.5-0.9-1.3-1.8-2-2.7c-14.7-17.1-31.4-32.2-49-46.1c-8.6-6.8-17.8-12.9-26.8-19.1c-2.3-1.6-5.1-2.4-7.7-3.5
	c-0.2,0.2-0.3,0.5-0.5,0.7C824.2,278.3,824.8,288.7,823.4,299.3z M1000.1,577.1c-2.6-11-7.8-20.2-18.1-25.6
	c-7.5-4.1-15.5-4.2-23.7-2.1c-1.2,0.3-3.1,0.3-3.7-0.5c-5.1-6.1-10-12.4-15-18.7c6.7-8.4,16.3-11.9,26.4-9.2
	c13.2,3.5,21.9,12.3,27.5,24.6c0.3,0.8,1.4,1.3,2.1,1.9c0.2-0.9,0.6-1.8,0.5-2.7c-1.9-16.5-5.5-32.7-11.1-48.4
	c-5.4-15.3-11.8-30.2-17.8-45.2c-0.3-0.8-1.4-1.2-2.2-1.8c-0.2,0.9-0.5,1.7-0.6,2.6c-0.4,5.4-0.1,10.9-1.3,16.1
	c-3.3,14.8-10.7,27.8-19,40.1c-5.4,7.9-11.7,15.1-17.7,22.9c24.2,27,50.9,52.7,69.1,85.8C1001.6,603.9,1003.2,590,1000.1,577.1z
	 M658.4,374.5c2.8-4.2,4-9.5,5.9-14.2c0.4-0.9,1.2-1.9,2-2.3c6.7-3.2,13.3-6.3,20-9.2c1.9-0.9,2.8-2,3.2-4.1
	c1.6-8,2.7-16.2,5.2-23.9c3-9.1,6.6-18.1,11.1-26.5c5-9.4,16.7-12.6,27.4-8.6c3.4,1.3,6.5,3.2,9.6,5c1.6,0.9,2.8,1.3,4.5,0.3
	c3.4-2.1,6.9-3.9,10.3-5.9c3-1.8,4.2-4.7,2.8-8.1c-0.7-1.7-1.6-3.4-2.7-4.9c-4.5-6.6,0.7-14.1,6.9-15.2c2.9-0.5,5.3,0.7,5.6,3.7
	c0.3,2.6-0.1,5.4-0.7,8c-0.4,1.8-1.7,3.4-2.5,5c-2,4.3-1.7,6,1.7,9.6c5.5-2.3,7.4-7.2,8-12.6c0.7-6.4,4.5-10.4,9.7-13.3
	c2.1-1.3,4.5-1.9,6.7,0c2.2,1.9,2,4.4,1.2,6.7c-2.2,6.5-7.2,10.4-13.2,13.2c-4.1,1.9-6.4,6.1-5.6,10.4c0.5,2.7,1.9,3.5,4.5,2.7
	c3.4-1.2,5.9-3.3,7.6-6.4c4.7-9,17.3-11.6,26.2-6.4c3.4,2.1,3.8,4,1,6.8c-6.8,6.9-15,9.2-24.4,7.3c-5.3-1.1-11.7,2.7-13.1,7.6
	c-0.7,2.3-0.3,4.1,2.4,4.3c2.4,0.2,4.8,0.2,7.2,0.1c8.5-0.5,15.8,2.3,21.8,8.2c3.7,3.5,3.2,6.7-1.1,9.4c-7.8,4.8-23.7,0.9-26.7-8.6
	c-1.6-5.2-5.8-5.9-8.9-2.2c-1.7,2.1-2,4.5,0.1,6.2c2.1,1.7,4.6,2.9,7.1,3.9c5.6,2.2,9.7,9.4,8.5,15.3c-0.8,3.8-3.2,5.6-7.1,5.4
	c-8.2-0.5-13.6-5.9-14.4-14.1c-1.2-12.2-1.3-12.1-13-14.7c-5.8-1.3-11.6-2.6-17.2-4.5c-14-4.8-22.6,3.4-24.4,15.5
	c-0.9,6.8-0.1,13.4,4,19c1.5,2.1,3.8,3.6,5.1,4.8c-10.8,8.6-22.1,16.9-32.7,26.2c-9.4,8.2-18.1,17.3-26.8,26.4
	c-7.1,7.6-6.5,12.2,3.1,15.9c10.5,4.1,21.4,7,32.4,9.7c13.8,3.5,27.8,6.2,41.7,9.3c0.9,0.2,1.8,0.6,3.2,1.1
	c-5.2,4.8-11.1,7.4-17.1,9.7c-17.3,6.7-35.3,10.3-53.2,14.6c-0.5,0.1-0.9,0.3-1.3,0.4c-0.3,3.3,1.1,5.8,3.8,7.2
	c3,1.7,6.2,3.4,9.6,4.3c9.9,2.6,18.5,7.4,26.3,13.9c4.3,3.6,5.4,3.7,10,0.3c2.3-1.7,4.5-3.5,6.8-5.2c7.1-5.7,15.3-5.9,23.7-4.1
	c1.9,0.4,3.8,1.7,5.3,3.1c2.8,2.3,2.6,4.7-0.4,6.7c-4.3,2.9-9.2,4.8-14.5,4.7c-4.8-0.1-9.6-0.7-14.4-1.1c-1.5-0.1-3.1-0.3-4.5,0.1
	c-2.6,0.7-5.3,1.9-5.4,5c0,3.1,1.8,5.5,4.7,6.6c4.1,1.6,8.2,3,12.4,4.4c0.4,0.1,0.9,0.1,1.3,0.1c9.6-2.1,17,2.5,23.6,8.7
	c1.8,1.7,3.9,4.3,2.2,6.6c-1.3,1.7-4.2,2.9-6.5,2.9c-6.9,0.1-13-2.7-18.3-7.2c-0.9-0.8-2-1.8-2.2-2.9c-1-4.6-4.7-5.6-8.2-6.4
	c-4.9-1.1-9.4-0.1-13.1,3.5c-1.4,1.5-2,3-0.5,4.8c2.9,3.3,5.5,6.8,8.6,9.9c3.4,3.5,7.1,6.5,10.5,10c2.6,2.7,4,6,4,9.9
	c0,3.9-2.3,6.4-6.3,6.6c-5.7,0.3-9.5-3.1-12.5-7.4c-2.8-4.2-4.5-8.7-3.2-14.1c1.3-5.4-2.5-13.2-7.6-15.7c-1.3-0.6-3.7-0.3-4.9,0.6
	c-5.2,3.6-7.2,9-7.8,15.1c-0.7,7.2-3.6,13.1-10.5,15.9c-2.4,1-5.4,1.2-8,0.9c-4-0.5-5.7-3.5-5-7.4c1-6,5.7-10.8,11.6-12
	c6.3-1.3,13-7.8,15-14.7c-1.8-1.3-3.6-2.6-5.3-4c-2.2-1.9-4.2-1.9-6.3,0.3c-2.7,2.9-5.5,5.7-6.1,10c-0.1,0.9-0.8,1.9-1.4,2.6
	c-3,3.8-10.7,5.7-15.2,3.9c-2.5-1-3.5-2.8-2.3-5.2c2.4-5.2,6.5-8.4,12.1-9.2c11-1.6,15.2-12,8.6-21.2c-0.8-1.1-2.3-1.7-3.6-2.1
	c-8.2-3-16.5-5.8-24.8-8.8c-0.4-0.1-0.9-0.3-1.3-0.4c-11.3-4.5-13-13.2-5.9-21.9c3-3.7,7.6-6.2,11.6-9.1c1.5-1.1,3.2-1.9,5.5-3.2
	c-1.6-2.3-2.7-4.8-4.5-6.4c-4.9-4.5-9.9-8.7-15-12.9c-2.6-2.1-3.2-4.3-2.6-7.7C642.1,402.6,649,388.2,658.4,374.5z M672.9,519.4
	c-0.1-0.8-1.2-1.5-1.4-1.9c-4,0-7.8,2.3-7.6,4.3c0.1,0.7,1.3,1.8,2,1.9C668.5,523.9,673.1,521.1,672.9,519.4z M684.7,535.6
	c-0.3-2.5-2-3.3-4.2-3c-3,0.5-6.7,4.3-7.2,7.4c-0.5,2.4,0.9,4.2,3.3,4.3C680.1,544.3,685.1,539.1,684.7,535.6z M717.9,541.6
	c0.5,2.8,3.9,5.6,6.6,5.6c2,0.1,4-0.3,4-2.7c0-3.3-2.6-7.3-5.2-7.9c-1.4-0.3-3.4-0.1-4.4,0.8C717.9,538.2,717.7,540.3,717.9,541.6z
	 M740.9,515c1.8,1.7,4.2,2.8,6.1,4.1c2-0.8,3.4-1.2,4.5-1.9c0.3-0.2,0.1-1.7-0.3-2.3c-1.4-2.6-6.5-4.2-9.4-3.2
	C739.9,512.3,739.5,513.8,740.9,515z M733,486.9c1.6,0.8,3.6,0.9,5.7,1.4c2.6-0.6,5.5-1.1,8.3-2.1c1.1-0.4,1.8-1.7,2.8-2.5
	c-0.9-1-1.6-2.5-2.8-2.9c-5.1-2.1-10-0.7-14.4,2C730.5,484.1,731.1,486.1,733,486.9z M693.4,495.4c0,2.4,2.6,4.5,5.6,4.5
	c3.2-0.1,5.6-2,5.6-4.5c0-2.5-2.4-4.5-5.3-4.3C696.3,491.3,693.4,493.3,693.4,495.4z M788.7,313.2c3.6,1.7,7.3,3.1,10.7,4.5
	c1.8-0.7,2.9-1.1,4.1-1.5c-0.6-1.3-0.9-2.9-1.8-3.7c-3.5-2.9-7.7-4.1-12.2-3.5c-0.9,0.1-2.3,0.9-2.4,1.7
	C786.9,311.4,787.8,312.8,788.7,313.2z M791.4,284.8c5.5,3.4,15.2,1.6,17.2-3.1C804.1,278.8,794.2,280.4,791.4,284.8z M780.9,271.2
	c4-0.9,6.3-3,7.8-6c0.4-0.7,0.3-2.3-0.1-2.5c-0.7-0.5-2.2-0.5-2.8-0.1C783.1,264.5,781.5,267.2,780.9,271.2z M770.7,326.7
	c1.7,4.5,4.9,7.6,9.1,9.6c2,0.9,3.1,0,3.1-1.6c0-4.6-5.8-10.9-9.7-11.4C771,323.1,769.9,324.4,770.7,326.7z M762.1,270.6
	c1.9,0.5,3.8-2.7,3.9-6.9c-0.4-0.5-1.1-1.9-2.1-2.2c-1.6-0.5-4.2,3.6-3.9,6.5C760.1,268.9,761.2,270.4,762.1,270.6z M755.2,300.4
	c0.1,2.3,1.4,3.4,3.6,3.4c2.9,0,5.1-2.3,5.2-5.2c0.1-2.3-1.1-3.5-3.1-3.7C758.1,294.9,755.1,297.9,755.2,300.4z M927,512.2
	c-3.5,5-9.5,7.3-14.2,5.3c-5.3-2.2-8.8-9.4-7.6-15.1c1.4-6.6,5.2-10.3,10.1-10.3c-0.4,2.3-1.3,4.5-1.2,6.8c0,2.6,2,3.5,4.4,2.4
	c0.9-0.4,1.7-1.1,2.5-1.6c4.5-3,4.5-3,0.9-7c-2.9-3.3-4-10.8-1.8-14c0.9-1.3,2.2-2.1,3.7-3.5c0.3,3,0.3,5.4,0.9,7.7
	c0.4,1.3,2,2.3,3.1,3.3c1-1,2.5-1.9,2.9-3.1c1.2-3.9,1.1-7.4-2-10.8c-3.4-3.7-5.5-8-5.5-13.2c-0.1-5.2,2.6-9.6,7.6-11.6
	c-0.5,1.5-0.9,2.5-1.2,3.7c-1,3.2-0.5,6,1.9,8.6c1.4,1.5,2.6,1.1,3.3-0.5c2-4.8,2-9.9,0.5-14.9c-0.2-0.9-2-1.5-3.2-1.8
	c-0.9-0.2-1.9,0.1-2.9,0.2c-8.8,0.8-12.5-3.8-14.3-11.3c-1-4.1,0.9-7.8,5-10.3c-0.4,3.9,0.7,7,3.7,9.4c2.8,2.2,5.3,1.1,5.4-2.4
	c0.1-5.4-2-10.2-5.3-14.3c-1.5-1.9-2.6-0.8-3.9,0.7c-3.1,3.9-7.1,6-12.1,4.7c-5-1.3-8.2-4.8-9.1-9.8c-0.5-2.6,0.3-5.4,0.5-8.2
	c2.8,2.2,4.9,4.4,7.4,5.6c3,1.4,5.9-0.9,5.1-4.1c-2-8.2-6.1-15.1-13-20.1c-0.4-0.3-0.9-0.3-1.3-0.5c-0.3-0.1-0.6-0.1-1.1-0.1
	c-2,5.8-3.4,12.3-11.3,12.2c-4.9-0.1-9.8-5-11.5-10.6c2.3,0.6,4.5,1.5,6.7,1.8c3.9,0.4,5.2-1.6,3.5-5.2c-1.3-2.9-3.1-5.1-6.7-5.6
	c-3-0.5-5.9-1.6-8.2-2.3c-0.3,3.1-0.3,6.3-1.1,9.3c-0.9,3.2-3.4,5.4-6.7,6.2c-5.3,1.4-10.2-1.1-12.3-6.2c1.5,0.1,3.1,0.6,4.4,0.1
	c1.6-0.5,3.6-1.7,4.1-3.1c0.4-1.3-0.6-3.7-1.6-4.8c-1.2-1.3-3.1-2.1-4.8-2.7c-4.7-1.4-5.7-0.6-6.1,4.3c-0.8,9.7-11,14.2-20.4,8.7
	c1.2-0.8,2.2-1.5,3.2-2.3c2-1.4,3.6-3.1,3-5.8c-0.7-2.9-1.9-5.5-4.9-6.6c-3.5-1.3-6.2,1-6,4.6c0.5,8.4-2,15.7-8.7,21.1
	c-4,3.2-8.6,2.9-11.5,0.1c1.4-1.5,3.7-2.9,4.2-4.6c0.7-2.7-1.3-5-3.8-5.9c-2.5-0.9-5.4-1.6-8-1.3c-4.3,0.5-6.8,6-4.7,10.1
	c0.9,1.7,2.2,3.3,3.6,4.7c1.4,1.4,3.1,2.4,4.7,3.7c-0.3,0.3-0.4,0.6-0.7,0.7c-10,6.8-10.1,6.8-16.7-3.2c-6.7-10-12.7-20.5-15.8-32.3
	c-1.3-4.8-1.8-10-2.2-15c-0.3-3.9,1.1-5.2,4.9-5.5c3.6-0.3,7.2-0.1,10.7-0.1c0.1,0.4,0.1,0.7,0.2,1.1c-3.9,4.9-4,10.4-2.2,16
	c1.7,5.3,5.9,8.2,11.3,7.5c2.6-0.3,5.1-1.1,7.6-1.9c2.6-0.9,4-3.1,4-5.8c0-2.6-1-5.2-3.6-5.6c-1.6-0.2-3.7,1.2-5.1,2.4
	c-1.2,0.9-1.7,2.7-2.6,4.2c-5.6-8.7,0.5-23.3,10.3-25.2c4-0.8,7,1.2,10,3.2c5,3.3,8.4,7.4,7.9,13.8c5.1,2.7,11,2.1,13.3-1.3
	c1.7-2.5,2.6-5.2,0.6-8c-1.6-2.3-4.9-2.8-8.1-1.4c-0.7,0.3-1.4,0.9-2.2,1.3c-0.3-0.2-0.5-0.5-0.8-0.7c2.4-2.9,4.5-6,7.2-8.5
	c3.2-2.9,7.1-2.1,10.3,0.2c5.7,4,9.4,9.3,8.6,16.7c-0.3,2.4,1,3.1,3,3.3c2.8,0.2,5.7,0.8,8.4,0.6c1.6-0.1,3.5-1.1,4.6-2.3
	c0.6-0.7,0.5-3.1-0.2-3.8c-1.2-1.1-3.2-2.2-4.7-2c-2.2,0.3-4.3,1.8-6.5,2.7c-0.5-4.2,3.6-10.4,8.2-12.6c3.8-1.7,8.6-0.3,12.1,3.6
	c3.6,4.1,4.4,8.8,3.4,13.9c-0.9,4.4-0.9,4.6,3.4,5.6c3.6,0.9,7.3,1.6,10.9,1.6c3.1,0,4.9-3.1,4.3-5.8c-0.7-3.3-3-4.6-6.5-3.7
	c-0.6,0.2-1.2,0.4-2.3,0.8c1.2-4,2.4-7.2,6.2-8.4c3.6-1.1,6.5,0.7,8.7,3.3c5.7,6.5,6.5,14,3.8,22.3c8,3.6,12.4,10.6,16.9,17.6
	c1.3,2.1,2.9,3.5,5.3,2.4c2.7-1.2,2.4-4,1.3-5.7c-1.4-2.3-3.8-4.1-6.1-5.6c-1.3-0.9-3.3-0.8-5-1.1c3.6-5,9.8-6,14.8-2.3
	c5.7,4.4,8.4,10.3,7.1,17.5c-0.4,2.2-2.3,4.2-3.8,6c-2.6,2.9-2.3,3.7,0.1,6.6c2.3,2.8,3.9,6.2,5.7,9.4c1.1,1.9,1.5,5.1,4,4.3
	c1.5-0.5,2.8-3.7,3.1-5.8c0.5-4.3-1.6-7.7-5.3-10c6.4,0.5,11.6,2.9,14.3,8.9c3,6.8,1.6,13.2-2.7,19c-0.4,0.5-0.8,1.1-1.3,1.5
	c-5.8,3.3-6.6,8.4-5.6,14.5c0.5,2.9,0.1,5.9,0.1,8.9c6.5,1.1,8.9-1.4,7.2-7.8c-0.5-2-1.3-3.9-2.1-6.6c4.2,2.4,6,5.8,7,9.5
	c2.2,8.4,0.1,19.6-12.1,21.9c-4.3,0.9-7,6.4-5.4,10.6c1.1,3,3.8,3.7,6.2,1.5c0.8-0.7,1.5-1.6,2.2-2.5c1.5,3.7,0.1,8.2-3.4,11
	c-3.3,2.6-7.1,3.3-11.2,2.7c-0.9-0.1-2.2,0.2-2.9,0.8c-1.6,1.3-3,2.9-4.5,4.4c-2.8,2.9-2.6,4.5,1,6.2
	C925.3,512,926.2,512.3,927,512.2z M783.1,385.1c0.1-3.7-1.7-5.9-4-5.8c-2.2,0.1-3.5,1.3-3.4,3.5c0.1,2.7,1.8,4.4,4.3,4.5
	C781.2,387.3,782.5,385.6,783.1,385.1z M808.2,372.2c0.1-2.6-1.7-4.6-4.6-4.6c-1.7,0.1-2.8,1.3-2.8,3.5c0.1,2.7,1.8,4.2,4.3,4.5
	C807.5,375.7,808.1,374.1,808.2,372.2z M832.9,361.1c-1.4,0.3-2.7,1.8-3.5,2.4c0,3.3,2.2,5.5,4.4,5.6c2.3,0.1,3-1.5,3.1-3.4
	C837.1,363.3,834.8,360.6,832.9,361.1z M860.5,365c-1.4,0.2-2.8,1.5-3.6,2c-0.1,3.5,2.2,6.2,4.4,5.8c1.2-0.2,2.6-1.7,3-3
	C864.8,367.5,862.6,364.7,860.5,365z M893.2,375.9c-0.1-3.9-1.8-5.9-4.2-5.8c-2.1,0.1-3.2,1.3-3.2,3.4c0,2.3,2.2,4.9,4.3,4.5
	C891.3,377.8,892.5,376.4,893.2,375.9z M923.3,405.6c0.1-3.5-1.9-5.9-4-5.9c-2.2,0.1-3.4,1.4-3.5,3.5c-0.1,2.1,2.2,4.9,4.2,4.5
	C921.4,407.5,922.5,406.1,923.3,405.6z M937.6,436.8c1.4-0.2,2.5-1.6,3.2-2.1c0-3.5-2-5.9-4.1-5.8c-2.2,0.1-3.4,1.4-3.5,3.6
	C933.2,434.6,935.5,437.2,937.6,436.8z M935.5,467.5c1.1,1,2,2.3,3.2,3c0.3,0.2,1.6-1.2,3.1-2.4c-1.6-1.4-2.6-2.6-3.8-2.9
	C937.4,465.1,936.3,466.7,935.5,467.5z M929.7,491.6c0,0.9,0.9,1.7,1.9,3.1c0.7-1.3,1.6-2.1,1.4-2.8c-0.1-0.7-1-1.4-1.6-2.1
	C930.9,490.4,929.6,491.1,929.7,491.6z M918.2,508c-1.3-1-1.9-1.7-2.8-2.1c-0.3-0.1-1.5,1.3-1.4,1.7c0.3,0.9,1.1,1.7,1.9,2.1
	C916.2,509.8,917.1,508.9,918.2,508z M778.8,420.1c-8.3,3.7-16.2,7.2-24.4,11c-0.4-4.5-0.6-8.6-1.1-12.6
	c-1.3-9.8-13.8-20.7-25.2-17.1c-4.3,1.4-5.9,3.1-6.5,7.8c-3.7,0.2-4.8-2.9-6.2-5.2c-4.2-7.4-5.3-15.5-2.6-19.2
	c4.1,4.2,8.8,5.8,14.2,5.3c4.5-0.4,7.2-2.5,8.5-7c3.2-11.2,1.1-21.6-4.9-31.4c-0.5-0.9-1.1-1.7-2.2-3.3c7.5-0.7,14.4-1.3,21.3-1.9
	c2.2-0.1,2.8,1.5,2.9,3.3c0.1,3,0.3,6,0,9c-0.9,10.7,2,20.5,6.3,30.2c4.3,9.6,9.2,18.8,16.7,26.4
	C776.9,416.7,777.6,418.3,778.8,420.1z M741.5,367c-2.2,0.1-3.8,1.1-4,3.5c-0.1,2.3,3,4.8,7,4.7c0.6-0.7,2.2-1.9,2.4-3.4
	C747.5,369.2,744.5,366.8,741.5,367z M760.3,408.2c-2.2,0-4.2,0.8-4.3,3.5c-0.1,2.3,3,4.8,6.9,4.9c0.6-0.8,2.2-2,2.5-3.5
	C765.9,410.7,763.2,408.2,760.3,408.2z M465,804.3c-1.8-5.4-3.4-10.2-5.1-15.4c-4.5,3-8.7,5.7-13.7,9
	C452.7,800.2,458.5,802.2,465,804.3z M460.7,814c-5.9-2.7-11-5-16.3-7.4c-0.7,5.2-1.3,10.1-2,15.7C448.5,819.5,454.2,817,460.7,814z
	 M444.2,762.2c1,7.9,1.9,15.7,3,24.2c3-2.8,5.8-5.3,8.7-8c-3.7-5.7-7.2-11.2-10.8-16.7C444.7,761.9,444.5,762.1,444.2,762.2z
	 M446.3,830.2c7.9,4.3,15.9,8.4,23.7,12.6c-0.9-6.8-1.7-13.8-2.6-20.9c-7.2,2.5-14,4.9-21,7.4C446.4,829.6,446.4,829.8,446.3,830.2z
	 M443.7,855.4c7-1.7,13.5-3.3,21-5.2c-7.8-4.4-14.7-8.3-22.2-12.6C442.8,843.9,443.2,849.4,443.7,855.4z M631.6,845
	c-5.6,0.7-11.5-0.9-13.9,6.2c-0.1,0.2-0.3,0.3-0.4,0.5c-8.2,10.3-18.8,17.1-31.1,21.3c-3.6,1.2-7.4,1.9-11.3,2.2
	c-9.6,0.9-17.2-3.6-21.2-12.4c-3.6-7.9-4-16.3-3.7-25c5.5,1.2,10.5,2.3,15.4,3.5c0,2.5-0.1,4.7,0,7c0.7,13.2,9.5,19.5,22,15.6
	c7.1-2.2,12.7-6.4,17.4-12c1.6-2.1,3.1-4.3,5.1-7.2c-16.6,0.5-31.8-2.5-46.6-6.8c-14.7-4.4-29.3-9.2-44.5-14.1
	c2.5,10.5,6.2,19.5,12.5,27.5c4.3,5.4,9.6,8.9,16.8,9.4c3.3,15.4-1.1,28.4-12.6,39.9c2.3-0.3,3.4-0.3,4.5-0.5
	c15-2.2,28.7-7.9,42-14.8c14.4-7.4,28.3-15.7,40.2-26.8C626.2,854.8,629.8,850.9,631.6,845z M697.6,373.2c-5.2,5-10.5,10-15.7,14.9
	c0.1,0.4,0.3,0.8,0.4,1.2c7.1,1.9,14,3.9,21.1,5.8c0.3-0.3,0.5-0.6,0.7-0.9c-1.8-6.9-3.6-13.8-5.4-20.7
	C698.4,373.5,698,373.3,697.6,373.2z M757.4,329.5c-7.1-6.4-14.8-10.6-23.5-12.8c-6.1-1.5-12.7,2.1-14,7.8c-1.4,6,3,12.6,9.5,13
	C739.4,338.3,748.9,336.1,757.4,329.5z M683.2,880.8c-1.8,0.8-3.4,2-5.5,3.3c-2.6-6.6-5.1-13-8-20.1c-5.3,9.4-14.2,13.2-22.2,17.9
	c9.4,31.7,41.9,49.1,69.7,44.5c-6.9-6.6-13.8-13.4-20.8-20.1c-3.8-3.7-5.6-8-5.6-13.3c0-3.1-0.2-6.2-0.9-9.2
	C689,880,686.8,879.1,683.2,880.8z M714.9,360.9c-4.3,3.4-8.4,6.9-13,10.7c7.4,4.1,14,7.8,20.6,11.3c4.2,2.2,7.1,0.2,6.6-4.7
	c-0.8-7.8-5.1-13.5-11.9-17.2C716.6,360.6,715.4,360.5,714.9,360.9z M715.8,423.4c0.4-0.5,0.8-0.9,1.2-1.3c-2.6-6.5-5.2-13-8.2-20.5
	c-5.4,5.4-9.9,10-14.4,14.5c0.1,0.5,0.2,0.9,0.3,1.5C701.7,419.5,708.8,421.4,715.8,423.4z M712,812.1c3.6-3.8,7.6-7.3,11.4-11
	c0-0.4-0.1-0.7-0.1-1.1c-7.4,1.1-15,1.7-22.2,3.6c-10.4,2.7-18.9,9.2-26.8,16.2c-1.4,1.3-2.8,3.2-3.1,5c-2,12.1-7.9,22.1-15.9,31
	c-11.5,12.6-25.6,21.4-40.8,28.6c-5.7,2.7-11.5,5-17.3,7.6c17.5-0.9,32.8-7.9,46.9-17.7c14.3-9.8,25.9-22.1,31.9-37.9
	c2.7,10.6,5.6,21.7,8.6,33.1c1-0.9,1.6-1.4,2-1.9c7.8-8.2,13-17.7,14.6-29.1C702.6,828.8,705,819.5,712,812.1z M408.9,785.1
	c11.3-1.5,23,3.4,27.4,15.7c0.9,2.5,1.5,5,2.5,8.2c0.3-1.6,0.6-2.5,0.6-3.5c0.1-14.6,0.5-29.2,0-43.8c-0.3-8.6-1.9-17.1-5.7-25
	c-2-4.3-4.6-8.3-9.4-10.9c-0.7,1.6-1.2,2.9-1.8,4.1c-6.1,12-11.7,24.3-18.5,35.9c-8.6,14.6-20.8,26-35.8,33.9c-7.7,4.1-16,7-25,4.8
	c-3.8-0.9-7.3-3.1-10.9-4.6c2.9,6.8,5.7,13.9,9,20.9c5.1,10.5,10.2,21,15.9,31.2c2.8,5.1,7,9.4,12.9,11.4c5.5,1.8,10.1-0.1,11.8-4.8
	c-8.5-0.1-15.6-5.5-17.8-14.4c-2.6-10.6-1.8-21.1,3.6-30.6C376.7,797.4,390.4,787.4,408.9,785.1z M443.7,282
	c-10.2-11.2-16.4-23.9-15.3-39.6c0.3-4.2,1.6-6.8,5.6-9c13-7,25.5-14.9,36.2-25.2c8.8-8.6,15-18.5,15-31.4c0-8.1-2.2-15.8-6-22.9
	c-4.7-8.7-10.1-17-15.2-25.5c-0.5,0-0.9,0.1-1.3,0.1c-3.4,5.4-6.9,10.8-10.2,15.9c3.2,2.6,6.5,4.3,8.6,6.9c8.3,10.4,8,22.1,3.6,33.9
	c-3.6,9.8-10.3,16.6-20.9,18.7c-2.3,0.5-4.8,0.5-7.2,0.3c-3.2-0.3-3.9-3.3-3.9-5.7c0-4.8,0.2-9.7,1-14.5
	c3.1-18.8,10.9-35.8,20.8-51.9c4.6-7.6,9.1-15.4,14.3-22.7c9.5-13.2,22.4-21.6,38.7-23.1c15.9-1.5,29.3,4.8,39.3,16.9
	c5.9,7,10.5,15.1,15.1,23.2c7.8,13.8,15.5,27.8,22.5,42c3.7,7.6,5.9,15.9,8.6,23.9c0.5,1.5,0.5,3.3,0.3,4.9
	c-0.3,2.7-1.6,4.1-4.6,4.6c-14.9,2.7-27.5-7.6-32.6-22.1c-3.2-9-4.2-18.3,1.2-26.8c2-3.3,5.3-5.7,8.6-9.1c-2.2-4.1-4.7-8.8-7.3-13.7
	c-8.8,4.3-15.6,10.4-19.8,18.8c-8.2,16.3-6.2,32.3,2.4,47.6c10.3,18.4,27.1,27.8,47.3,31.5c7.4,1.4,12.9,7.6,13.4,15.3
	c0.5,8-2.1,15.1-6.1,21.7c-9.6,15.7-22.3,28.2-39.1,35.8c-0.4,0.2-0.8,0.3-1.2,0.5c-4,1.8-7.2,1.9-11.1-1.6
	c-8.2-7.4-18-11.6-29.3-10.1c-10.6,1.4-17.8,8.9-20.5,20.6c-0.5,2-1,4-1.5,6.2C475,306.7,457.4,297.1,443.7,282z M485.9,132.1
	c1.3,1.8,2.5,4.1,4.3,5c1.3,0.7,3.6-0.1,5.3-0.9c1.1-0.5,1.7-1.9,2.7-2.9c3.7-3.5,7.5-7,11-10.2c5.2,5,10.7,10.4,16.5,16
	c1.4-1.1,2.9-2.1,4.2-3.4c2-2,2.2-4.4,0.3-6.4c-6.9-7.2-13.9-14.3-20.6-21.3c-8,7.8-15.6,15.2-23.1,22.6
	C486.2,131,485.7,131.9,485.9,132.1z M524.1,154.9c-5.1-5-10.7-9.6-16.1-14.5c-4,4.4-9.2,9.8-14.2,15.3c-0.5,0.6-0.6,2.1-0.2,2.9
	c1.4,3.1,4.5,3.5,6.9,0.9c2.9-3.1,5.7-6.4,8.8-9.8c4,4.3,7.8,8.4,11.5,12.5C525.2,160.1,526.6,157.3,524.1,154.9z M519.9,176.8
	c-3.2-3.1-6.5-6-10.1-9.3c-2.8,3-6.1,6.5-9.5,10c-1.3,1.3-2.3,2.5-0.5,4.2c1.6,1.6,3.1,1.1,4.5-0.5c2-2.3,4-4.4,6.1-6.7
	c2.9,3.1,5.7,6,8.4,8.9C522.6,180.7,522.8,179.7,519.9,176.8z M470.8,253.1c1.6,11.4,7.1,20.1,18.6,23.2c7.7,2.1,15.6,3.2,23.5,4.7
	c8-1.5,15.9-2.4,23.4-4.5c12.1-3.4,18.8-12.1,18.7-24.5c-0.3-21.5-10-37.7-28.4-48.3c-7.2-4.2-15.2-6-23.7-3.1
	C482.9,207.5,467.7,231.9,470.8,253.1z M512.5,937.4c1.3-1.3,2.6-2.5,4.5-4.3c-1.8-1-3.2-2.1-3.6-1.8c-1.3,0.9-2.4,2.2-3.1,3.6
	C510.1,935.3,511.7,936.5,512.5,937.4z M674,681.8c11.1-3.3,21.5-3.3,32.5-1.7c-5.6-7.4-10.9-14.2-16.5-21.7
	C684.6,666.2,679.5,673.7,674,681.8z M343.9,398.6c-18.8,14.3-24.6,41.9-13.4,63.4c3.4,6.4,7.8,12.1,11,14.1
	c-4.1-9-4.7-18.1-2.6-27.4c2.8-12,8.9-21.6,20.6-26.7c5.7-2.5,10.2-1.1,13.7,4.1c1.1,1.5,1.8,3.3,2.6,5c3.3,8.5,4.2,17.4,4,26.4
	c-0.4,16.5-2.9,32.5-11.3,47.1c-4.9,8.4-20.1,16.8-30.2,13.9c-0.9-0.3-2-0.2-3-0.3c-0.1,0.3-0.3,0.7-0.5,1.1
	c2.3,1.5,4.5,3.2,6.9,4.6c4.5,2.7,6.1,6.8,5.7,11.8c-0.5,5.8-3.6,10.3-8,13.9c-1.9,1.6-3.8,3.3-5.6,4.8c0.2,0.3,0.4,0.7,0.7,1.1
	c1.8-0.7,3.6-1.3,5.3-2.3c18.5-11.3,32.3-27,42.4-46.2c6.7-12.6,10.2-26.3,12.3-40.3c3.2-21.3,0.9-41.6-10.5-60.4
	C374,390.8,358.3,387.6,343.9,398.6z M407,429.9c2.9,0.1,2.1-2.3,2.3-3.7c3.4-26.4,12.6-50.6,29-71.5c8.6-11,18.9-20.5,28.4-30.8
	c0.7-0.7,1-1.9,1.4-2.9c-1.1,0.1-2.2-0.2-3.2,0.1c-9.4,3.3-18.8,6.6-28.3,9.8c-16.5,5.6-32.9,11.6-47.8,20.9c-8,5-7.9,5-3.6,13.6
	C395.6,385.9,406.9,405.9,407,429.9z M280.1,291.6c0.9,4,1.1,8,1.7,12.2c23.3,2.3,44.9,10.2,65.7,22.2
	c-7.4-21.8-55.1-52.5-77.4-55.9c2.4,3.8,4.9,6.8,6.5,10.2C278.3,283.8,279.3,287.7,280.1,291.6z M517.7,951c2.2,0.3,4.5,0.5,6.7,1.1
	c4.8,1.3,6.3,4.8,4,9c-0.3,0.6-0.3,1.3-0.7,2.6c3.8-4.4,3.4,1.6,5.1,1.5c0.4-1.8,0.7-3.5,1.1-5.5c1.1,1,1.5,1.5,2,1.9
	c0.3-0.1,0.5-0.3,0.7-0.5c-0.5-1-1-1.9-1.4-2.9c-0.4-1.1-1.3-2.7-0.9-3.5c1.1-2.1,2.6-3.9,4.2-5.5c1.1-1.1,2.6-1.7,4-2.5
	c-0.1-0.1-0.1-0.3-0.2-0.4c-8.3,1.3-16.5,2.5-24.8,3.7C517.6,950.3,517.6,950.7,517.7,951z M635.8,696.1c4.7-3.5,8.9-6.9,13.5-9.6
	c4.7-2.7,9.8-4.6,15.1-7.1c-3.2-8.8-6.7-18.2-10.3-28.2c-9.2,3-18.3,5.9-27.7,9C631.8,671.7,635.5,683.2,635.8,696.1z M652.7,630
	c6.1,3.4,11.6,6.5,17.6,9.8c-1.1-5.8-2.2-11-3.2-16.3C662.3,625.8,657.8,627.7,652.7,630z M666.8,654.7c1.6,4.8,3.4,9.6,5.4,15.2
	c3.6-6.5,6.8-12.2,10.1-18.2c-6.9-4.1-13.4-8-20.8-12.4C663.5,645,665.1,649.8,666.8,654.7z M685.5,556.8c2.2-0.5,4.3-0.8,6.5-1.2
	c-0.1-0.3-0.1-0.5-0.1-0.8c-2.8,0-5.7,0.1-8.6,0c-16.7-0.4-32.5,2.5-47,11.3c-8.2,5-15.3,10.8-17.1,21.1c-2,10.9-0.1,20.6,9.2,27.6
	c5.7,4.3,12.5,5.7,19.4,6.2c12.4,0.9,20-5.6,20.7-18.1c0.7-11.6-7.1-19.8-17.8-18.7c-4.7,0.5-8.2,3.6-8.9,7.9c-0.8,5,0.9,8,5.8,10.2
	c3.3,1.5,6.6,2,10.5,1.1c-1.4,1.3-2.5,2.9-4.1,3.9c-7.2,4.3-18.8-1-20.7-9.2c-1.5-6.8,1.6-12,5.9-16.7
	C652,567.8,667.8,560.5,685.5,556.8z M595.7,335.5c-2.7,3.1-5.3,6.2-8,9.2c-2,2.3-4.3,2.6-7,0.8c-3.1-2.1-6.5-3.7-9.4-6
	c-1.6-1.2-3.6-3.5-3.4-5c0.3-1.6,3-2.8,4.7-4c0.5-0.4,1.4-0.3,2.9-0.5c-0.1,1.7-0.1,3-0.2,4.3c-0.5,5.8,4.5,10,10,8.4
	c7.8-2.3,10.8-10,5.8-16.3c-3.1-3.9-7.4-6.8-11.3-9.8c-1.2-0.9-3.4-1.3-4.9-1c-8.2,1.5-15.4,5-21.1,11.3c-3.5,3.9-3.4,5.3-0.1,9.3
	c8.3,9.8,18.3,17.4,29.2,24c15.3,9.3,31.4,16.3,49.4,17.9c5,0.5,10.1,0.2,15.2,0.1c0.7,0,1.4-0.9,2.2-1.5c-0.7-0.7-1.2-1.5-2-1.9
	c-0.5-0.3-1.3-0.1-1.9-0.3c-4.7-1.3-9.5-2.6-14.2-4.1c-2.2-0.7-2.6-2.4-1.2-4.1c2.6-3.2,6-5,9.4-5.1c1.8,2.3,2.8,4.6,4.5,5.8
	c5.4,3.8,13.4-0.4,14.4-7.2c0.3-2.4-0.1-4.5-2.4-5.6c-3.6-1.7-7.2-4-11.1-4.6c-4.4-0.7-9.4-0.8-13.5,0.6c-2.4,0.8-3.7,5-5.5,7.8
	c-0.2,0.3-0.3,0.6-0.5,0.9c-2.4,2.9-5.5,6-9.1,4.8c-6.1-2-11.9-5-17.5-8c-2.6-1.3-2.3-4.1-0.4-5.9c1.5-1.5,3.7-2.2,6.2-3.5
	c0.3,2.1,0.3,3.2,0.5,4.3c1,7.4,8.8,12.6,14.2,9c3-1.9,5.3-5.2,7.2-8.3c1.6-2.7,0.5-5.8-2-7.2c-6.7-3.5-13.4-7.1-20.2-10.3
	C599.4,331.1,599.3,331.4,595.7,335.5z M220.1,308.2c-8.4,7.6-17.3,14.6-25.8,22.1c-3.6,3.1-7.2,6.3-9.9,10.1
	c-7,10.2-3.4,21.6-3,33.3c8.6-7.1,17.7-10.6,27.9-11.6c0.9-0.1,1.9-1.3,2.5-2.2c3.6-5.6,8.6-9.8,14.6-12.4c2.4-1.1,4.1-2.3,4.5-4.9
	c0.2-1,0.6-1.9,0.9-2.8c5-13.9,14-19.9,28.1-18.6c3.4,0.3,6.6,1.3,10.2,2c0.1-8.6,0-16.8-5.5-24.1c-7.6-10.1-20.9-5.4-24.6,3.1
	c-1.6,3.8-0.9,7.2,1.4,10.2c2,2.6,4.2,1.9,5.7-1c0.9-1.7,2.7-3.6,4.5-4.2c5.3-1.6,10.3,2,11.4,7.3c-3.2-0.3-6.6-1.3-9.8-0.9
	c-13.4,1.7-23.7,8.6-30.8,20.3c-0.5,0.9-1.6,1.7-2.6,1.9c-6.5,1.2-11.7,4.6-15.4,9.9c-2.9,4.1-4.9,8.8-7.3,13.1
	c-4.5-5.8-3.9-13.2,2.3-19.6c3.4-3.5,7.6-6.4,11.1-9.9c5-4.9,10.1-9.8,14.5-15.3c5.1-6.5,9.3-13.7,14-20.5c4.3-6.2,9.5-8.3,16.8-6.3
	c4.3,1.2,8.5,3.1,12.7,4.7c-5.5-16.1-20.2-22.7-35.3-17.7c-0.7,0.3-1.3,2.2-1.3,3.3c-0.1,3.1,0.4,6.2,0.1,9.2
	C231.1,295.6,226.5,302.5,220.1,308.2z M522,946.7c6.2-1,11.7-1.9,17.2-2.7c-3.3-1.8-6.2-3.3-9.2-4.9
	C527.7,941.2,525.1,943.7,522,946.7z M572,945.2c1.6-1.1,3.1-2.3,4.7-3.4c-0.9-0.7-1.6-1.7-2.6-2.2c-6.7-3.1-13.2-1.1-19.8,1.5
	c1.1,0.1,2.1,0.4,3.1,0.3c4.7-0.4,9.1,0.7,13.2,3.1C571,944.8,571.7,945.4,572,945.2z M488.7,241.5c-0.1-12.6,10.7-24.5,22.5-24.6
	c12.3-0.2,22.7,11.2,22.8,24.7c0.1,12.5-8.8,20.5-22.7,20.5C497.8,262,488.8,253.8,488.7,241.5z M503.9,239.7
	c-0.1,3.9,3.1,7.1,7.1,7.1c3.9,0,7.1-3.2,7-7.1c-0.1-3.8-3.2-6.9-6.9-7C507.1,232.7,503.9,235.7,503.9,239.7z M446.7,1098.8
	c1.1,11.8-4.7,16.2-16.3,13.9c-9-1.9-17.5-5.2-25.2-10.1c-9.4-5.8-18.5-12.3-27.5-18.4c13.9-19,18.2-40.3,21.2-61.9
	c1.8-13.3,2.2-26.7-1.2-39.9c-1.8-6.9-4.5-13.4-10.3-18c-7.4-5.8-15.8-5.5-24.2-3.3c-12.2,3.3-22.7,9.8-33.8,17.5c1.8,0,2.7,0,3.6,0
	c16-0.5,30.6,11,34.4,26.8c3.3,13.7,1.3,26.8-3.6,39.6c-2.2,5.8-4.9,11.6-7.6,17.9c-3.8-4.4-7.2-8.2-10.3-12.2
	c-10-12.6-20-25-29.4-37.9c-4.7-6.6-8.2-14.1-12-21.3c-0.5-0.9,0.1-2.7,0.9-3.7c16.5-21.1,35.5-39.7,57.1-55.6
	c15.2-11.2,31.4-20.3,48.9-27.2c0.8-0.3,1.6-0.5,2.1-0.7c-0.4,9.3-1.3,18.6-1.1,27.8c0.5,21.5,4,42.7,9.4,63.5
	c6.5,25.1,13.8,50,20.2,75.1C444.1,1080.1,445.8,1089.4,446.7,1098.8z M410.7,1077.3c4,0.1,8.6,1,10-3.7c1.5-5.2,2.1-10.9,2.8-16.2
	c0.7-5.6,1.3-11.2,1.5-16.8c0.2-4.3-6.4-4.3-6.6,0c-0.3,5.4-0.7,10.9-1.4,16.3c-0.3,2.7-0.8,5.3-1.3,7.9c-0.3,1.5-0.4,4.2-1,6
	c-1.2,0.1-2.4-0.2-3.4-0.2c-2-0.1-3.9-0.1-5.8-0.1c-3.8-0.1-7.7-0.2-11.5-0.3c-4.2-0.1-4.2,6.6,0,6.6
	C399.6,1077,405.2,1077.1,410.7,1077.3z M426.9,1073.4c-0.2,1.1-2.2,11.8-2.6,14.9c-0.5,0-0.9,0-1.4,0c-1.2,0-2.4,0-3.7,0
	c-2.9,0-5.8,0-8.7,0c-4.2,0-4.2,6.6,0,6.6c3.5,0.1,7.1,0.1,10.5,0.1c2.6,0,6.1,0.6,8.1-1.3c1.8-1.8,1.8-5.2,2.2-7.6
	c0.7-3.7,1.3-7.2,1.9-10.9C434.1,1071,427.7,1069.2,426.9,1073.4z M384.2,899.9c0.9-0.4,1.6-0.9,2.6-1.5c-5.3-5.7-11.5-8-18.8-6.6
	c-8.8,1.8-15.5,7.2-20.9,14.1c-3.9,5-7.4,10.2-6.8,17.1c0.1,0.8-0.9,1.9-1.6,2.6c-8.5,7.7-17,15.3-25.6,23c-1.4,1.3-3.1,2.5-5.4,4.2
	c3.3-15.8,8.6-29.8,16.5-42.6C331,899,339,889,350.4,882.2c9.4-5.6,19.1-7.8,29.4-3c6.3,3,11,8,15,13.6c0.7,0.9,1.8,2,2.6,1.9
	c3.6-0.3,7.1-1.1,10.9-1.8c-1.6-1.7-3.3-3.1-4.4-4.8c-2.8-4-5.6-7.9-7.8-12.2c-2.4-4.5-1.8-9.2,1.2-13.5c1.3-1.9,2.6-3.9,3.5-6
	c2.4-6.2,2.4-12.6-0.3-18.7c-1.8-4.1-4.7-6.6-9.8-6.8c4-2,7.9-3.7,12-4.6c7.1-1.5,13.8,1.9,16.1,8.8c1.6,4.7,2.8,10,2.2,14.9
	c-1.6,14.7,2.4,27.2,11.5,38.5c7.7,9.6,17.8,15.3,29.5,18.5c-3.8-3.3-7.8-6.4-11.7-9.4c-9.3-7.2-14-15.9-12.5-28.4
	c1.6-13.4,0.3-27-3-40.1c-1.9-7.6-6.5-13-14-15.4c-12.1-4-27.5,0.9-36.6,11.4c-5.4,6.3-8.7,13.5-9.5,21.8c-0.3,2.5,0.3,4.8,3.1,5.4
	c3,0.7,4.7-1.1,5.9-3.5c0.4-0.8,0.5-1.7,0.9-2.7c3.2,2.4,4.2,5.6,3.9,9c-0.5,6.9-6.6,13.8-13.7,15.8c-6.5,1.9-12.6-0.4-17-6.9
	c-2.5-3.7-4.3-7.9-6.5-12.2c-0.3,0.3-0.7,0.7-1,1.2c-7.6,12-15.9,23.6-22.7,36.1c-11.3,20.9-21.5,42.2-32.3,63.4
	c-2,4-2.9,8.2-2.2,12.6c0.3,1.9,1.3,4.4,2.7,5.4c2.1,1.5,4-0.5,5.6-2.1c5.7-5.9,11.3-11.8,16.9-17.7
	C338,930.7,358.9,912.3,384.2,899.9z M551.3,947.7c-3.5,0.6-6.9,2.2-10.2,3.4c-1.7,0.6-2.3,1.7-2,3.6c0.7,4.1,1.4,8.3,1.8,12.5
	c0.2,2.5-0.3,5-0.8,7.4c-0.1,0.7-1.4,1.6-2.2,1.6c-0.6,0-1.3-1.2-1.7-2c-0.5-1-0.8-2.1-1.3-3.5c-1.4,2.1-1.6,5.6-5,3.3
	c-1.2,2.1-2.3,4.1-3.4,6c-0.3,0-0.7-0.1-1.1-0.1c-0.5-1.5-1.1-2.9-1.4-4.5c-1.2-6.2-2.2-12.4-3.4-18.5c-0.2-1.1-1.1-2.5-2-3
	c-6-2.9-12.3-4.8-19-3.9c-5.9,0.8-11.3,2.9-16.4,6.2c3.8,4,5.1,4.5,9.4,2.5c5.7-2.6,11.3-2.1,16.9,0.1c2.8,1.1,4.7,2.7,6.5,5.2
	c3.4,4.7,2.7,10.1,3.5,15.3c0.2,1.5,0.4,3.4,1.3,4.3c2.4,2.3,5.3,4.1,8.1,6.2c2.1-5.9,2.1-5.9,6.9-1.9c3-3.3,5.9-6.8,9.2-9.8
	c2.2-2.1,2.6-4.3,2.1-7.1c-0.5-2.9-1.2-5.9-1.3-8.8c-0.1-3.6,0.9-6.9,4.5-8.6c3.8-1.7,7.3-1.1,10.4,1.7c1.6,1.5,3,3.2,4.6,5
	c1.6-0.9,3.3-1.9,5.1-3C565.2,950.9,559.5,946.4,551.3,947.7z M301.1,741.5c-4-8.4-8.3-16.8-11.6-25.6c-5.5-14.6-5.2-29.6-0.6-44.5
	c2.3-7.4,5.1-14.5,9.6-20.9c2-2.9,2.9-6.6,4-10.1c1.8-6.1,6.3-9.7,11.9-11.8c4.9-1.8,9.4,0.1,12.9,3.6c8.2,8.2,16,16.7,24.1,25
	c6.7,6.9,13.5,13.8,20.6,20.5c2.5,2.4,5.7,4,9,6.2c-1.5,2.7-3.2,5.6-4.9,8.9c-5.7-3.4-10.2-7.9-14.1-12.9
	c-8.7-11.2-17-22.8-25.6-34.1c-2.4-3.3-5.1-6.4-8-9.2c-6.1-5.9-12.6-5.8-18.1,0c3.2,7.1,6.5,14.2,9.6,21.4
	c5.5,12.9,10.5,26,16.3,38.7c4.3,9.4,10,17.9,19.4,23.2c0.7,0.4,1.2,2,1.2,3c0,4.9-0.5,9.9-0.3,14.9c0.3,7.8,3.4,14.8,6.9,21.6
	c0.5,1,0.9,1.9,1.6,3.5c-15.9,0.5-31.2,0.6-45.7-5.1C311.1,754.4,304.8,749.4,301.1,741.5z M318.8,727.7c5.8,5,12.2,8.6,20.2,8.6
	c1.8-16.7-0.1-31.7-13.8-42.8c-4.6-3.9-8.2-8.6-9.1-15.8c-1.1,2.2-2,3.5-2.5,4.8c-1.3,3.9-2.6,7.8-3.6,11.7
	C306.9,706.9,308.2,718.6,318.8,727.7z M497.8,961.4c-1.8,0.9-2.7,2-0.6,3.6c2.1,1.6,4.2,3.1,6.2,4.7c3.9-4.4,6.6-1.4,9.9,5.9
	c0.9-4.4-0.5-7.9-2.8-11C507.9,961.3,501.2,959.8,497.8,961.4z M503.9,940.4c-1.3-0.3-2.5-0.6-3.8-0.9c-7.3-1.8-13.7,1.3-20.3,3.6
	c-1.4,0.5-2.6,1.3-1.5,3.2c0.9,1.6,2,3.4,4.1,2.1c6.6-4.1,13.6-6.8,21.4-7.2C503.8,941,503.8,940.7,503.9,940.4z M496.7,933.3
	c0.8,0.1,1.6-0.3,2.4-0.4c-10.3-2.1-20.3-0.7-30.1,2.6c1.2,4,2.1,4.5,5.2,3C481.3,934.9,488.7,932.9,496.7,933.3z M264.1,364.4
	c-4.6-5.5-11.9-3.9-14.2,2.9c-1.6,4.5,0.3,7.1,5.1,6.7c3.1-0.3,4.3,0.8,4.3,3.9c0,4.5-2,8-6.7,11.1c1.6-9.8-3.4-15.7-9.9-20.9
	c6.2-8.4,8.8-16.7,1.1-25.4c5.5-6.6,11-6.8,15.8-0.1c3.2,4.5,5.6,9.5,7.9,14.5c1.9,4,3.1,8.3,4.5,12c2-4.6,3.4-9.8,6.3-13.8
	c4.2-5.8,8.2-12,17.5-10.5c14.6,2.5,29.3,4,43.5,8.6c14,4.6,24.4,12.7,28.5,27.7c0.7,2.7,1.8,5.4,2.7,8.1
	c2.4-12.8,1.1-24.8-6.1-35.7c-7.4-11.2-18.5-17.8-30.4-22.9c-15.5-6.6-31.9-9.6-48.4-12.2c-4.2-0.7-8.3-1.3-12.9-2.1
	c1.9,4.8,3.1,9.2,1.6,13.8c-0.5-0.1-0.8-0.1-1-0.2c-0.5-0.3-0.9-0.6-1.4-0.9c-5.5-4.1-11.6-5.2-18.1-3.1
	c-10.3,3.3-17,10.6-21.6,20.1c-0.3,0.6-0.4,1.6-0.2,2.2c2,6.1,1.5,11.7-2.6,15.7c4.8,6.6,9.9,12.6,13.8,19.3c4,7,3.8,15.2,4,23.2
	c7.9-3.5,16.9-12.9,19.5-20.5C269.3,378.4,269.5,370.9,264.1,364.4z M284.2,602.9c-6.2-12.5-10.1-25.8-13.5-39.3
	c-0.2-0.9-1.1-1.6-1.7-2.4c-0.5,0.9-1.3,1.7-1.3,2.5c-2.9,25.6-3.2,51.1,0.1,76.7c0.9,6.6,2.2,13.3,3.4,19.9
	c0.1,0.7,1.1,1.4,1.6,2.1c0.5-0.7,1.1-1.3,1.3-2c0.4-1.4,0.4-2.9,0.7-4.3c3.2-14,9.4-26.6,18.9-36.9
	C290.3,613.5,287,608.4,284.2,602.9z M210.5,363.5c-6.6,0.9-12.2,3.5-17.7,6.7c-12.5,7.3-17.9,19-19,32.9c-0.5,5.6,2.6,9.2,8.1,9.7
	c3.6,0.3,7.5,0.1,11-0.9c5.1-1.5,9.6-4.4,10.7-10.2c1.1-5.5-2.8-8.7-6.2-12c-0.7-0.7-2.1-0.8-3.2-1.2c-0.2,1.1-0.8,2.3-0.5,3.3
	c0.7,2.9-0.2,4.4-3.1,5c-3.2,0.6-5.1-0.4-5.7-3.4c-0.3-1.6-0.3-3.3-0.1-4.9c1.3-7.2,9.6-14.3,17.5-15.5c6.3,9.5,15.4,9.3,25,7.6
	c0.2,0.5,0.4,1,0.5,1.5c1.7,7.7,1.3,15.4-0.4,23c-1.6,7.4-4.1,14.5-9,20.5c-3.6,4.4-5.5,4.4-9,1.1c-2.8,4.5-5.3,9.2-8.6,13.4
	c-2.6,3.5-6,6.4-9,9.6c-2.3,2.5-2.1,4.6,0.9,6c2,0.9,4.4,1.7,6.6,1.7c10,0.1,17.7-4.8,24.1-11.9c7.8-8.8,13.2-18.9,15.9-30.5
	c4.3-18.3,0.1-34.5-11.9-48.8C218.8,370.8,211.3,369.8,210.5,363.5z M145,496.6c-8.8-9-18.9-10.2-30.1-4.4
	c-7.3,3.8-12.7,9.8-17.4,16.4c-8.4,12-13.9,25.1-15.1,39.7c-0.5,6.2-0.1,12.5-0.1,18.4c-3.5-2.3-6.6-7-8.5-13.6
	c-3.6-12.3-2.3-24.6,0.7-36.7c4.5-18,12.2-34.3,25.6-47.4c6.7-6.6,14.4-11.5,24-11.8c5.1-0.1,10.3,1.1,15.5,1.8c0-0.4,0.1-1.4,0-2.3
	c-1.4-13-0.5-25.9,1.8-38.7c5.9-33.9,16.9-66,31.8-96.9c0.9-1.9,2.1-2.7,4.1-3.1c13.6-2.7,26-8,36-17.9c4.9-4.8,8.2-10.6,7.4-18.3
	c-2.9,1.3-5.6,2.5-8.2,3.8c-15.9,8-28.6,20.1-40.9,32.6c-14.4,14.7-27.6,30.3-39.9,46.8c-25.1,33.9-45.5,70.5-59.6,110.6
	c-15.3,43.1-22,87.5-19.9,133.3c0.3,5.1,0.8,10.2,1.3,16.1c6.6-8,12.6-15.1,18.5-22.4c25.6-31.8,50.1-64.5,82-90.5
	c0.5-0.5,0.8-2.1,0.4-2.7C151.3,505,148.6,500.4,145,496.6z M198.6,425.3c2.9-2.3,6.5-3.9,9.7-5.7c-2.2-3.3-4.9-4.3-8.8-2.6
	c-2.6,1.2-5.4,2.7-7.4,4.8c-6.3,6.8-12.2,13.9-18.3,20.9c-1.9,2.1-3.8,4.3-6,6.2c-1.6,1.4-3,1.3-3.4-1.2c-0.1-0.7-0.3-1.5-0.4-2.3
	c-2-14.1,0.7-27.7,4.9-41.1c1.3-4.3,2.8-8.6,4.3-12.8c-3.6,4.9-6.6,10-9.2,15.3c-9.3,18.5-15.8,37.7-13.8,58.9
	c0.9,9.5,3.7,18.4,8.4,26.6c0.8,1.3,2.6,2.1,3.8,3.2c0.9-1.2,2-2.2,2.6-3.5c6.4-14.9,12.5-30,19.2-44.7
	C187.9,439.2,191.5,431,198.6,425.3z M278.1,414.2c2.2,5.1,3.1,10.8,4.7,16.1c0.2,0.8,1.1,1.3,1.6,2c0.4-0.7,1-1.4,1.1-2.1
	c1.3-9.5,2.8-19.1,3.5-28.6c0.5-6.5-0.4-13.1-5.5-18.5c-0.9,1-1.6,1.9-2.4,2.8c-5.9,6.2-11.9,12.4-17.7,18.6
	c-0.7,0.8-1.3,1.7-1.9,2.6c1.1,0.1,2.1,0.5,3.1,0.3C271.5,406.1,275.3,407.6,278.1,414.2z M216.7,358.9c-0.1,2.9,1.7,4.8,4.5,4.9
	c2.9,0.1,4.7-1.6,4.9-4.5c0.1-2.8-1.8-4.9-4.5-5C218.9,354.1,216.8,356,216.7,358.9z M554,932.5c-1.4-1.3-2.3-2.1-3.2-2.9
	c-1.1,1.6-2.3,3.1-3.1,4.8c-0.1,0.3,1.9,2.1,2.1,2C551.2,935.5,552.3,934.2,554,932.5z M608.6,620.3c5-0.7,9.4-1.3,14.6-2.1
	c-3.4-4.8-6.5-9.2-10-14.2C611.5,609.8,610.1,614.7,608.6,620.3z M572,718.4L572,718.4c-0.1,0.1-0.1,0.1-0.1,0.1
	c-18.4,0.7-35.4-14.2-46.3-27.8c-10.9-13.7-17.9-30.6-18.5-48.2c-0.1-3.1-3.5-3.9-5.3-2.6c-1.3,0.3-2.4,1.4-2.4,3.1
	c-0.5,8.4-0.8,16.9,0.7,25.3c1.3,7.8,4.6,15.1,8.6,21.9c1.5,2.5,3.1,5.4,4.9,8.2c0.1,0.3,0.3,0.7,0.5,1c0.3,0.5,0.7,0.9,1.1,1.4
	c1.6,2.4,3.4,4.8,5.2,6.9c8.8,11.1,19.2,21.5,33.5,23.5c7.8,1.1,18,0.4,24.5-4.5c2.8-2.1,4.3-6.1,1.8-9
	C577.9,714.8,573.6,715.3,572,718.4z M612.8,568.9c-8,9.1-15.9,18.2-23.9,27.3c0.2,0.1,0.4,0.3,0.5,0.5c5.4-1.8,10.8-3.6,16.1-5.4
	c0.7-0.3,1.4-1.1,1.6-1.8c2.4-5.8,4.7-11.6,7-17.5c0.3-0.7-0.2-1.8-0.3-2.7C613.6,569,613.2,569,612.8,568.9z M622.4,653.1
	c3.1-10.6,6-20.4,9-30.9c-9,1.3-16.9,2.5-25,3.7C611.8,634.9,616.9,643.6,622.4,653.1z M634.1,894.3c-0.2-0.2-0.4-0.4-0.7-0.6
	c-0.9,0.5-1.8,0.9-2.8,1.3c-3,1.5-6.1,3.2-9.2,4.5c-20.2,8.8-41.6,12.2-63.1,15.2c-6.7,0.9-13.2-0.5-17.5-6.8
	c-0.5-0.8-1.4-1.4-2.2-1.9c-2.1-1.3-3.5-0.3-4.6,1.5c-1.1,1.8-1.7,3.5,0.7,4.7c2.4,1.3,2,2.7-0.2,4.3c-3.1-4.3-6.4-4.5-10.1-0.7
	c-0.6,0.7-2.4,0.1-3.8,0.1c0-0.3-0.1-0.7-0.1-1.1c0.5-0.5,1.3-0.9,1.6-1.5c0.9-1.1,2-2.3,2.2-3.6c0.1-0.8-1.2-2.5-2-2.6
	c-1.4-0.1-3.4,0.3-4.4,1.3c-1.8,1.6-3.2,3.7-4.5,5.6c-5.2,8.1-13.4,9.8-21.7,8.4c-11.8-2.1-23.6-5-35.1-8.6
	c-11.7-3.7-23.3-8.2-32.2-17.4c-0.4-0.4-1.1-0.6-1.6-0.9c-0.3,0.2-0.7,0.5-1.1,0.7c3.8,15.7,11.8,29.1,23.1,40.6
	c9.4,9.4,21.7,12.9,33.8,16.7c-3.9-3.7-8.6-6.4-12-10.3c-3.5-3.9-5.7-9-8.8-13.8c7.4-0.8,14.1-1.4,20.7-2.1
	c13.2-1.5,26.4-2.7,39.7-0.6c2.7,0.5,5.1,1.3,5.9,4.1c0.8,2.9,0.1,5.6-2,7.8c-3.4-0.9-2.1-2.9-0.5-5.6c-1.7,0.6-2.8,0.7-3.2,1.2
	c-1.4,1.6-0.7,4.9,1.3,6.4c2,1.5,4.1,1.3,5.3-0.9c1-1.9,1.9-4,2-6c0.1-3.1-0.4-6.2-0.7-9.2c-0.3-3.2,0.9-5.5,2.9-5.3
	c2.8,0.2,3.6,2.2,3.9,4.8c0.3,3.5,0.9,7,1.8,10.4c1.1,3.5,4.2,5.2,6.7,4.6c3.3-0.9,3.8-4,4-6.6c0.1-1.1-1.8-2.5-3.1-3.5
	c-0.2-0.2-1.6,1.2-2.2,1.7c1.4,0.7,3,1.5,3,1.7c-0.5,1.4-1.2,2.9-2.2,4c-0.3,0.3-2.2-0.1-2.6-0.7c-2.1-3-1.9-7.7,0.1-10.3
	c1.9-2.5,5.4-3.3,9.3-1.5c5.1,2.3,10.4,2.1,15.8,1.8c8.2-0.5,16.4-0.9,24.6-1c2.8-0.1,5.7,0.8,9.6,1.4
	c-7.7,11.4-18.5,18.2-26.9,27.8c2.2,0.3,4.7,0.8,6.4-0.1c6.3-3.3,12.8-6.4,18.5-10.6c14.6-10.8,24.6-25.7,33.9-41
	C631.8,899.4,632.9,896.8,634.1,894.3z M768.4,597.2c-5.7-15.7-17.5-26-32.8-32c-12.7-4.9-25.4-4.5-36.7,3.7
	c-10.8,7.6-18.1,18.2-22.6,30.7c-2.5,6.9-3.4,13.9-1.6,21.2c4.2,16.9,25.4,30.2,42.3,26.4c13.6-3,22.5-18.8,17.9-31.6
	c-2.7-7.5-11.7-13.1-18.4-11.5c-8.4,2-16.1,13.3-15.3,22.1c-4.8-4.6-6.2-10.4-4.6-16.7c2.4-10,8.4-17,18.2-20.1
	c9-2.8,16.9,0.3,22.8,7.2c4.2,5,7.9,10.7,10.3,16.7c13.4,33.2,13.8,67.4,5.9,101.9c-0.3,1.5-0.7,2.9-1,4.4c0.3,0.1,0.6,0.3,0.9,0.4
	c0.1-0.3,0.3-0.5,0.4-0.9c6.9-14.7,12.9-29.8,16.8-45.6c4.3-17.3,5.3-35,2.6-52.7C772.3,612.8,771.1,604.7,768.4,597.2z
	 M745.2,866.5c11.3,30.8,15.9,62.6,13.1,95.5c-1.6,18.9-6.1,37.1-16.2,53.4c-4.5,7.3-4.5,7.5-12.5,5.3c-11.7-3.1-20.8-9.5-24.9-21.5
	c-3.3-9.6-1.7-18.8,2.4-27.7c5.5-11.8,14.4-20.2,25.5-26.4c0.9-0.5,1.8-0.9,2.6-1.4c0.1-0.1,0.1-0.2,0.2-0.5
	c-5.4-1.4-10.7-1.1-15.8,0.5c-23.5,7.3-40.3,21.8-46.3,46.6c-3.1,13,1.5,24.4,10.5,34c9.2,9.7,20.7,15.5,32.8,20.3
	c2.5,1,5.1,1.9,7.8,2.9c-9.2,13.6-20.2,24.8-33,34.3c-20.2,15.2-42.6,25.6-67.2,31.7c-0.9,0.3-1.9,0.3-2.9,0.4
	c-3.6,0.1-6.6-0.9-8.4-4.2c-1.7-3.1-0.8-6.1,0.9-9c5.7-9.7,11.9-19.2,16.9-29.2c10.9-21.9,17.7-45.2,21.4-69.4
	c2.7-17.7,3.5-35.5,1.3-53.3c-1.3-10.8-3.6-21.3-7.6-31.5c-0.3-0.7-0.7-1.5-0.8-2.2c-0.1-1,0.1-1.9,0.2-2.9c0.9,0.3,1.7,0.6,2.4,1.1
	c5.7,3.9,10.9,8.7,17,11.8c18.5,9.2,38.2,13.1,58.8,9.9c18.5-2.9,28.3-18.1,23.1-36.5c-2-7.3-5.2-14.3-8.5-21.1
	c-4.6-9.4-9.8-18.5-14.7-27.8c-7.3,2.8-13.6,12.3-13,20.2c5.7-0.3,10.7,1.5,15.1,5.2c5.9,4.9,7.2,11.5,6.1,18.6
	c-0.9,6-6.3,9.8-12.9,10.1c-9.6,0.4-15.9-5.9-19-16.6c-6.2-21.5,3.4-40.1,21.3-51.7c1.4-0.9,2.8-1.7,4.4-2.7
	C735.1,842.3,740.9,853.9,745.2,866.5z M659.5,1083.7l-8.5,0.1c-1,0-2.6-0.2-3.6,0c-0.2-0.1-0.4-0.1-0.6-0.1c0-0.3,0.1-0.7,0.1-1
	c0.3-5.6,0.6-11.2,0.9-16.8c0.2-4.3-6.4-4.3-6.6,0c-0.1,3.7-0.3,7.5-0.5,11.2c-0.2,3.1-1.3,7.6,0.2,10.6c1.4,2.8,4.5,2.8,7.2,2.8
	c3.9-0.1,7.7-0.1,11.6-0.1C663.8,1090.2,663.8,1083.6,659.5,1083.7z M667,1063.8c-0.7,0.1-2.2,0.1-3.2,0.3c0.8-2.1,0.6-5.4,0.7-7.6
	c0.2-2.6,0.3-5.2,0.4-7.8c0.1-5.2,0.1-10.4-0.2-15.6c-0.2-4.3-6.8-4.3-6.6,0c0.3,6.5,0.4,13,0.1,19.5c-0.1,3.1-0.3,6.1-0.7,9.1
	c-0.3,2.2-1.1,4.8,0.1,6.9c2.4,4.5,9.6,1.9,13.4,1.4c6.5-0.9,13-1.8,19.6-2.7c4.2-0.5,4.2-7.2,0-6.6c-5.2,0.7-10.4,1.4-15.6,2.1
	L667,1063.8z M496,561.8c-5.5,6.5-11.6,12.5-17.4,18.7c4,4.2,4,8,0,11.8c-4.2,3.9-7.8,3.3-12.6-2.2c-4,1.5-7.9,2.9-11.9,4.3
	c6.3,10.3,17.5,13.4,27.5,8c9.6-5.1,13-17.1,8.2-28.1c8.8-10.1,17-20.3,22.1-33.5C506.3,548.3,501.5,555.3,496,561.8z M605.3,808.4
	c9.6,5,18.8,2.9,28.3-0.5c18.5-6.8,31.3-20.3,42.2-36.1c-0.7,0.5-1.4,1-2,1.6c-9.8,9.2-21.2,15.6-33.9,19.8c-8,2.7-16.1,4.5-24.5,3
	c-5.9-1.1-10.6-5.4-11.5-10.8c-1.1-6.2,2.2-13.8,7.2-16.2c2-1,4.5-1,6.9-1.4c0.1,0.3,0.1,0.7,0.2,0.9c-0.6,0.3-1.2,0.5-1.7,0.9
	c-3.7,2.4-6.1,9.5-4.7,13.6c2.1,6.1,10.3,7.7,15.7,3c4.7-4.1,6.4-10.9,4.2-16.9c-5.3-14.7-22.7-18.1-32.7-6.3
	c-0.1,0.1-0.1,0.1-0.2,0.2c-3.2-11-8.7-21.1-15.2-31c-11.5,13.2-24.4,15.5-38.4,7.6c-27.2-15.5-44.2-39.3-53-69
	c-4.2-14-4.4-28.1,3.2-41.5c3.9-6.8,7.1-7.5,12.7-1.9c2.9,2.9,4.9,5.9,4.4,10.4c-0.3,2.2,0.4,4.6,0.9,6.8
	c5.5,21.9,17.6,39.4,35.6,52.5c7.6,5.5,16.1,9.2,26.2,6.5c-0.4-1.1-0.7-2-1.1-2.9c-1.4-2.6-2.5-5.4-4.3-7.7
	c-18.6-23.2-37.1-46.5-55.9-69.5c-5.1-6.2-12-10-19.8-12c-5.9-1.5-11.4,0.3-13.7,5.6c-2.5,5.6-4.9,11.6-6.1,17.6
	c-3.9,20.7,2.2,39.6,11.9,57.6c12.1,22.7,29.5,41.1,47.4,59.1c10,10.1,21.2,18.4,34.7,23.2c7.4,2.7,15,4,22.7,4
	C587.7,790.7,593.2,802.1,605.3,808.4z M559.4,933.5c6.7-1.2,13.4-1.6,19.9,1.3c2.3,1,4.2-0.7,5.5-3.3c-9.8-2.4-18.9-1.3-28.5,1.1
	c0.6,0.5,0.7,0.7,0.9,0.7C557.9,933.5,558.7,933.7,559.4,933.5z M607.4,597.9c-8.2,3.1-15.4,5.7-23.1,8.6
	c6.1,5.6,11.9,10.8,18.1,16.4C604.1,614.5,605.7,606.6,607.4,597.9z M639.6,626.6c-2.1,7.4-4.2,14.5-6.4,22.3
	c7.6-4.2,14.6-8,22.1-12C649.7,633.1,644.8,630,639.6,626.6z M491.1,485.5c6-2.3,11.8-1.3,16.8,2.6c8.2,6.3,13.3,15.1,15.9,25
	c2.4,9.2,3.2,18.7,4.5,27.6c0.3-3.3,0.7-7.2,0.8-11.2c0.5-19.6-4.8-37.8-13.8-55c-4.4-8.5-9.3-16.7-14.4-25.9
	c-6.1,14.5-14.4,26.3-25,36.4c-10.6,10-22.8,17.6-36.9,23.1c26.6,3.5,51.2,10.1,72.4,26.4c0-0.3,0.1-0.7,0-0.9
	c-0.3-0.7-0.5-1.5-0.9-2.1c-3.3-6.8-9.1-11.2-15.2-15.2c-3-1.9-6-3.7-8.6-6.1C478,501.9,480.2,489.5,491.1,485.5z M514.6,606.6
	c-0.7,5.4,2.6,8.4,6.5,11.3c8.2,6,16.7,12,24.1,19c20,19.1,34.9,42,45.7,67.5c4.9,11.6,8.4,23.9,12.4,35.9c0.6,1.9,1.3,3.3,4.5,2.9
	c-0.1-4.4,0-8.8-0.2-13.2c-0.3-5.8-0.9-11.7-0.9-17.5c0.1-5.2,3.9-8.8,8.7-9.1c2-0.1,3,0.4,3.4,2.6c0.8,4.4,0.1,7.8-3.4,11
	c-4,3.5-4.9,8.3-3.7,13.4c1.1,4.3,3,8,7.8,9.3c6,1.7,11.3-1.5,12.7-7.6c2.3-9.6,0.1-18.7-2.5-27.7c-1.5-5.3-3.3-10.5-4.9-15.8
	c-1.3-4.2-3-5.2-6.7-3.1c-3.4,1.9-6.3,4.3-9.4,6.6c-3,2.3-6.5,2.4-8.8-0.5c-3.8-4.6-7.7-9.4-10.8-14.5c-4.5-7.6-2.3-12.3,6.1-14.8
	c-0.3,3.8-1.2,7.8-0.9,11.7c0.5,6.6,4.7,10.4,10.2,10.4c5.5-0.1,10.9-5.3,11.5-11.3c0.5-4.9-0.5-9.6-3-13.7
	c-3.6-5.9-7.6-11.6-11.7-17.2c-0.5-0.6-2.5-0.9-3.2-0.3c-3.2,2.2-6.1,4.6-9.1,7.1c-2.4,2-4.9,4.1-7.3,6.1c-2.1,1.7-4.5,1.7-6.3-0.1
	c-4.2-4.5-8.4-9-11.7-14.1c-1.6-2.4-1.6-6.2-1.4-9.2c0.5-6.2,6-9.2,11.9-6.5c-0.7,2.1-1.5,4.1-2.1,6.2c-0.9,3.7-0.3,7,2,10
	c3,3.8,8.2,5.4,12.1,3.9c4-1.6,6.7-6.7,6.3-11.8c-0.6-8.8-5.1-15.6-11.4-21.3c-4.2-3.8-9-6.1-14.5-7.4c-2.4-0.6-3.6,0.2-4.4,2.5
	c-1.3,3.5-2.8,7-4.6,10.2c-3.6,6.3-8.6,7.4-14.6,3.3c-5.3-3.6-9.8-7.9-10.8-14.7c-0.7-4.8,3.4-8.6,8.4-7.7
	c-2.4,9.1,1.3,15.1,9.5,15.6c3.9,0.3,6.9-1.6,8.6-5.3c3.2-6.8,1.6-14-4.5-18.3c-6.3-4.5-13.5-7.4-21.2-8.3c-1.9-0.2-4.4,0.7-5.9,1.9
	C519.8,589.5,515.8,597.3,514.6,606.6z M580.9,889.5c-5.5,2.2-10.7,5-15.9,7.6c0.1,0.4,0.1,0.7,0.2,1.1c8.5-1.9,17.1-3.8,25.8-5.6
	c-1.4-1.2-2.7-1.8-4.1-2.1C584.8,890,582.5,888.8,580.9,889.5z M703.7,656.8c3.7,5.1,7,9.3,9.9,13.8c1.8,2.8,3.7,2.9,6.3,1.5
	c10.7-5.9,16.5-14.9,17.4-28.4C728.2,653.5,716.8,655.7,703.7,656.8z M619.5,867.2c-2.9,4.5-5.7,9-8.5,13.6c0.2,0.3,0.4,0.5,0.6,0.8
	c6.5-3.9,12.9-7.8,19.3-11.7c-0.1-0.3-0.1-0.7-0.2-1c-3-0.8-6-1.7-9.1-2.3C621,866.3,619.8,866.6,619.5,867.2z M461.9,362.2
	c0.1,0.9,0.4,2,0.1,2.8c-0.4,1.2-1.1,2.4-1.8,3.5c-8.7,12.5-12.3,26.7-14.6,41.5c-1.6,10-0.3,19.4,4.3,28.3c1.3,2.5,3.4,4.9,5.6,6.7
	c2.6,2.1,5.3,1.4,7.6-1.1c1.6-1.6,3.2-3.3,5.2-4.5c4.7-2.7,10.9-0.3,12.8,4.8c1.1,2.8,0.1,5.4-2.5,6.4c-2.9,1.1-6.1,1.7-9.2,1.5
	c-3.9-0.2-7.7-1.7-11.6-2c-1.5-0.1-4.2,1-4.5,2.1c-0.5,1.5,0.3,4.2,1.5,5.2c1.7,1.6,4.2,2.7,6.6,3.1c3.2,0.6,6.5,0.4,9.8,0.7
	c5.4,0.5,9.7,4.3,11,9.5c1.1,4.2-1.7,7.4-5.7,6c-3.4-1.3-6.7-3.2-9.7-5.3c-3.6-2.7-6.8-6-10.3-8.7c-3.9-2.9-7.1-2.8-9.3,0
	c-2.6,3.4-1.8,8.6,1.7,11.2c1.8,1.3,3.8,2.3,5.6,3.5c5.9,3.7,8.8,9.5,7.8,14.9c-0.6,3-2.5,4-5.2,3.8c-4.7-0.3-8.2-3.9-8.6-8.9
	c-0.5-6.3-1.7-12.3-5.3-17.5c-1.1-1.5-2.4-3.2-4-3.7c-1.8-0.5-4.3-0.3-5.7,0.7c-1.1,0.7-1.7,3.4-1.3,4.9c0.7,2.9,2.4,5.6,3.5,8.5
	c1.2,2.9,2.8,5.8,3.2,8.9c0.5,3.8-2,6.8-5.2,7.4c-3.6,0.7-7.1-1.2-8.6-4.6c-1.8-4-1.1-7.8,1.1-11.4c2.7-4.5,3.8-9.1,2.4-14.3
	c-0.9-3.5-3.3-6-6.7-6.4c-3.6-0.4-5.2,1.7-6.7,4.6c-1.2,2.3-2.9,4.5-4.9,5.9c-3.8,2.6-8.4,1.5-10.4-1.9c-2.2-3.9-1-9,3-11.2
	c1.7-1,3.8-1.5,5.9-1.9c2.2-0.5,4.5-0.5,7.4-0.8c1.1-7.5,2.1-14.9,3.2-22.3c2.2-14,5.4-27.8,12.2-40.4c6.5-12.3,15.9-21.9,27.5-29.2
	C459.7,362.1,460.9,362.3,461.9,362.2z M411.8,461.9c-0.3-1.1-1.8-2.3-2.9-2.5c-2.1-0.4-5.7,2.8-5.2,4.6c0.3,1.1,1.6,2.1,2.1,2.6
	C409.2,466.5,412.3,463.8,411.8,461.9z M431.4,482.8c-2.6-0.3-2.4,2.5-2.6,4.4c0,0.1,0,0.2,0,0.3c0.5,2.1-0.1,5.3,2.9,5.3
	c1.2-0.1,2.4-3.1,4-5.4C434.1,485.5,432.9,483,431.4,482.8z M435.2,444.3c-3.2-0.3-6,1.9-6.3,4.9c-0.3,3.4,1.8,6.3,4.7,6.5
	c3,0.3,6.9-2.8,7.2-5.6C441.1,447.5,438.3,444.6,435.2,444.3z M451.6,485.5c-0.1,3.1,2.4,6.8,4.3,6.4c0.9-0.2,1.5-1.3,1.9-1.7
	c-0.1-3.7-3-8.1-4.7-7.6C452.4,483,451.6,484.5,451.6,485.5z M469.3,466.3c0.7,4.8,4.7,7.6,8.7,6.4
	C477.6,467.6,474.1,464.9,469.3,466.3z M468.8,445c1.1,0.7,2.2,2.1,3.3,2.1c1.1,0.1,2.3-1.3,3.4-2c-1-1-1.9-2-3.3-3.5
	C470.7,443.1,469.7,444,468.8,445z M730.6,715c-3.8-12-11.4-21.2-23.5-25.1c-15.4-5-31-4.5-45.8,2.7c-9.7,4.7-15.9,12.6-17.1,23.6
	c-0.6,5.3-0.5,11,0.5,16.1c2,10.2,7,18.7,17.2,22.7c11.1,4.4,24.5-0.1,29.6-9.8c4.9-9.2,1.1-20.5-8-23.1c-7.3-2-14.8-2.9-20.9,3.5
	c-0.2-0.2-0.5-0.3-0.7-0.5c0.7-1.9,1.1-3.9,2.2-5.5c6.1-10.2,21.7-13.4,33.1-6.8c9.8,5.7,13.8,17.3,9.4,29.2
	c-2.5,6.6-5.5,13.4-9.5,19.2c-18.4,27.1-43.2,46.4-72.8,59.7c-1.7,0.8-3.5,1.5-5.3,2.2c0.1,0.3,0.1,0.5,0.2,0.8
	c0.9-0.1,1.8-0.1,2.7-0.3c6.2-1.5,12.4-2.9,18.5-4.5c20.7-5.6,40.2-13.8,57.2-27.4c10-8,19.1-16.8,26.5-27.1
	C735,749.5,736,732.5,730.6,715z M741.4,663.6c-4.2,10.5-11.9,17.2-22.8,21.3c10.1,4.8,15.5,13.8,22.3,22.3
	C743.5,692.3,743.4,678.1,741.4,663.6z M641.6,844.3c-0.3-0.1-0.5-0.1-0.7-0.1c-4.3,5.6-8.6,11.2-13.3,17.3c4.7,0.5,8.6,1,13,1.5
	C640.8,856.7,641.2,850.5,641.6,844.3z M663.1,828.4c-4.9,3.1-9.8,6.2-14.6,9.4c-0.5,0.3-1,1-1,1.5c-0.1,6-0.1,12-0.1,17.9
	c0.4,0.1,0.9,0.1,1.3,0.1c6.3-8.8,12.6-17.5,15.2-28.3C663.5,828.8,663.3,828.6,663.1,828.4z M601.6,886.3c2.6-3.8,5-7.6,7.5-11.4
	c-0.1-0.1-0.3-0.3-0.5-0.5c-5.9,3.6-11.8,7.2-17.7,10.8c0,0.3,0,0.5,0,0.7c3,0.4,6,0.8,9,1.1C600.4,887.1,601.2,886.8,601.6,886.3z
	 M390.1,534.3c3,28.3,28.4,52.9,59.9,47.8c13.3-2.2,23.5-9,28.2-22.4c7.6-21.5-9.9-37.9-23.5-40.5c-13-2.4-23.4,6.7-22.4,19.4
	c0.4,5.1,3.1,8.6,7.7,10c4.5,1.4,9.6-0.2,12.5-3.8c0.8-1,1.5-2.1,2.3-3.2c4.9,6.9,4,13.2-2.6,17c-5.6,3.2-11.7,3.9-17.9,2.4
	c-10.1-2.5-16.5-9.9-21.5-18.4c-10-16.9-12.5-34.9-7.5-53.9c0.2-0.9-0.3-1.9-0.4-2.8c-0.7,0.5-1.7,0.8-2.2,1.5
	C393.1,501.6,388.3,517,390.1,534.3z M361,544.6c-7.2,7.4-7.2,7.3-1.3,16c9.2,13.5,22,22.3,36.8,28.4c5.1,2.1,10.3,3.5,15.5,5.3
	c-22.9-15.8-35.5-37.2-37.2-64.8C370.3,534.4,365.7,539.6,361,544.6z M472.2,775.2c3.4,18.5,29.7,44.8,43.6,43.6
	C498.3,807.1,482.8,793.6,472.2,775.2z M462.7,731.7c4-1.2,6.2-3.9,6.5-7.8c0.7-8.3-4.6-12.9-13.9-11.8c-0.2-5.1,4.2-8.7,8.8-7.2
	c6.5,2.1,10,7.1,12.8,13c3.1,6.6,1.3,11.5-5.5,14.1c-3.5,1.3-7.1,2.3-10.7,3.1c-2.4,0.5-3.3,1.5-3.1,4c0.5,5.6,2,10.9,5.1,15.6
	c4.7,7.1,10.6,12.6,19.2,14.5c4.9,1.1,10.3-0.9,12.5-4.5s1.3-9.1-1.9-12.6c-2.6-2.8-5.8-3.9-9.6-3.5c-2.1,0.2-4.2,0.7-6.3,1.1
	c-1.6-6.2,2-11.4,8.2-10.8c3,0.3,6.7,0.9,8.8,2.9c4.5,4.1,8.3,9,12.1,13.8c1.6,2,1.2,4.5-0.9,6.3c-2.4,2.1-4.7,4.2-7.1,6.4
	c-2.8,2.6-5.7,5.2-8.4,8c-0.6,0.6-0.7,2.7-0.1,3.3c4.9,4.9,9.9,9.8,15.2,14.3c3.6,3.1,8.1,4.8,13,5.1c5.9,0.3,11.9-4.3,12.8-9.8
	c0.9-5.4-2.2-10.2-8.6-11.8c-3.8-0.9-7.8-0.7-11.6-0.9c3.7-8,8.6-9.5,15.4-3.8c4.6,3.9,8.6,8.4,12.7,13c2.4,2.8,1.8,6.2-0.9,8.8
	c-2.8,2.7-5.6,5.3-7.9,8.4c-2.6,3.5-1.9,5.2,2,7.2c4.9,2.4,9.8,4.9,14.8,7.2c8.5,4,17.1,7.6,26.8,6.7c6.2-0.5,10-5.3,9.4-11.6
	c-0.6-5-3.9-7.5-8-9.2c-4.7-2.1-9.7-1.8-13.6,1.7c-3.6,3.1-7.1,3.2-11.3,1.8c-2-0.7-2.5-1.8-2-3.7c1.1-4.8,5.2-8,10.3-7.3
	c5.7,0.9,11.3,2.4,17.1,3.5c4.3,0.9,8.7,1.5,12.9,2.2c0.9-3.2-0.4-4.1-2.1-5c-11.1-5.8-22.7-11.1-33.3-17.8
	c-23.3-14.6-43.6-32.9-59.3-55.7c-5.8-8.4-10.3-17.7-15-26.8c-2.2-4.4-4.6-8.2-10.1-8.2c-9.2-0.1-17.6,2.6-24.4,8.8
	c-1.4,1.3-2.7,3.7-2.8,5.6c-0.3,7.8,1.4,15.4,4.9,22.4C448.7,731.2,455.5,733.8,462.7,731.7z M377.1,669.6c5.4-5,10.3-9.5,14.2-13.2
	c-10.2-1.9-21.7-4.2-32.9-6.3C363,658.3,370.1,665.6,377.1,669.6z"/>
</svg>
